<svg version="1.1" id="svg2" height="35" viewBox="0 0 390.26666 1158.8" xmlns="http://www.w3.org/2000/svg" xmlns:svg="http://www.w3.org/2000/svg">
    <defs id="defs6"></defs>
    <g id="g8" transform="matrix(1.3333333,0,0,-1.3333333,0,1158.8)">
      <g id="g10" transform="scale(0.1)">
        <path d="m 936.969,5494.48 c -12.207,-359.65 -26.504,-673.66 -71.09,-676.82 -33.926,-2.42 -132.086,96.83 -257.086,206.83 -36.426,32.05 -151.188,134.62 -131.785,179.09 l 357.832,891.37 c 4.828,14.15 24.996,13.69 29.09,-0.69 26.828,-94.12 82.359,-325.33 73.039,-599.78 z M 2810.51,408.961 c -117.93,37.551 -161.22,48.488 -187.3,173.18 -28.62,136.738 -53.47,274.269 -74.5,412.379 -31.7,208.14 -54.76,417.59 -69.07,627.64 -13.56,198.95 -57.09,388.64 -86.24,586.49 -73.12,496.56 -94.94,997.85 -136.57,1497.33 -21.32,241.77 -44.16,483.43 -69.78,724.78 -19.38,182.54 -69.82,360.57 -85.86,544.78 -23.25,267.07 7.41,531.07 -1.48,797.69 -1.29,69.97 -48.94,521.17 -56.81,606.44 -7.89,85.27 -4.1,292.13 -16.36,347.37 -12.26,55.26 -43.59,248.82 -108.17,332.51 -64.58,83.69 -166.26,88.38 -166.26,88.38 0,0 -83.67,21.77 -25.99,97.91 57.67,76.15 197.04,131.06 242.39,305.16 45.36,174.11 68.1,313.49 85.41,375.04 17.32,61.53 130.24,306.44 53.18,468.07 -77.06,161.62 -242.15,286.64 -634.61,296.63 -392.45,10 -550.025,-310.42 -497.369,-534.51 52.659,-224.08 134.899,-426.92 209.909,-550.58 75.01,-123.66 83.43,-224.05 39.22,-310.73 0,0 -63.73,-111.79 -142.56,-162.24 -78.83,-50.45 -404.749,-223.02 -552.573,-439.36 -147.824,-216.33 -253,-702.44 -253,-702.44 0,0 -192.5193,-620.23 -209.8475,-672.96 C 10.082,5146.99 -45.2969,5018.97 57.6016,4917.08 160.512,4815.19 821.766,4361.62 821.766,4361.61 746.172,3682.88 691.793,3003.19 629.473,2323.06 594.438,1940.7 543.918,1556.46 535.254,1172.47 529.648,923.84 583.496,668.168 623.441,423.168 647.543,274.488 592.836,80.4688 648.316,54.9688 703.793,29.4883 892.125,0.328125 1437.12,0.328125 c 545,0 678.34,0 678.34,0 0,0 103.57,-10.148435 110.12,83.261675 6.54,93.3982 -52.61,91.3592 -97.82,111.1292 -45.22,19.769 -20.84,45.59 1.03,45.601 21.88,0.02 233.33,0.84 384.17,-9.16 150.83,-10 295,-39.172 340,-34.172 45,5 71.66,35.832 73.33,82.5 0,0 16.9,87.231 -115.78,129.473" style="fill:#66c430;fill-opacity:1;fill-rule:nonzero;stroke:none" id="path12"></path>
      </g>
    </g>
</svg>