<?xml version="1.0" encoding="UTF-8" standalone="no"?>
<!-- Created with Inkscape (http://www.inkscape.org/) -->

<svg
   version="1.1"
   id="svg2"
   width="377.95334"
   height="377.95334"
   viewBox="0 0 377.95334 377.95334"
   sodipodi:docname="Logo_Polygravia_B_CMJN.ai"
   xmlns:inkscape="http://www.inkscape.org/namespaces/inkscape"
   xmlns:sodipodi="http://sodipodi.sourceforge.net/DTD/sodipodi-0.dtd"
   xmlns="http://www.w3.org/2000/svg"
   xmlns:svg="http://www.w3.org/2000/svg">
  <defs
     id="defs6">
    <clipPath
       clipPathUnits="userSpaceOnUse"
       id="clipPath18">
      <path
         d="M 0,283.465 H 283.465 V 0 H 0 Z"
         id="path16" />
    </clipPath>
  </defs>
  <sodipodi:namedview
     id="namedview4"
     pagecolor="#ffffff"
     bordercolor="#000000"
     borderopacity="0.25"
     inkscape:showpageshadow="2"
     inkscape:pageopacity="0.0"
     inkscape:pagecheckerboard="0"
     inkscape:deskcolor="#d1d1d1" />
  <g
     id="g8"
     inkscape:groupmode="layer"
     inkscape:label="Logo_Polygravia_B_CMJN"
     transform="matrix(1.3333333,0,0,-1.3333333,0,377.95333)">
    <path
       d="M 114.556,89.93 H 63.041 v 51.515 h 51.515 z"
       style="fill:#231f20;fill-opacity:1;fill-rule:nonzero;stroke:none"
       id="path10" />
    <g
       id="g12">
      <g
         id="g14"
         clip-path="url(#clipPath18)">
        <g
           id="g20"
           transform="translate(166.0714,244.4746)">
          <path
             d="M 0,0 H -51.515 V -103.03 H 0 c 28.451,0 51.515,23.064 51.515,51.515 C 51.515,-23.064 28.451,0 0,0"
             style="fill:#587cc7;fill-opacity:1;fill-rule:nonzero;stroke:none"
             id="path22" />
        </g>
        <g
           id="g24"
           transform="translate(67.9511,57.1585)">
          <path
             d="m 0,0 v -8.788 c 0.467,-0.098 1.011,-0.147 1.637,-0.147 1.186,0 2.09,0.393 2.713,1.183 0.623,0.79 0.935,1.874 0.935,3.257 C 5.285,-1.497 3.97,0 1.344,0 Z m 0,-11.097 v -4.817 l 2.279,-0.205 c 0.019,-0.137 0.027,-0.331 0.027,-0.582 0,-0.508 -0.087,-1.014 -0.262,-1.519 h -9.023 c -0.098,0.699 -0.136,1.227 -0.117,1.576 0.136,0.194 0.415,0.375 0.833,0.541 0.418,0.164 0.891,0.257 1.416,0.276 v 15.74 l -2.189,0.204 c -0.019,0.449 -0.017,0.818 0.013,1.11 0.031,0.292 0.102,0.623 0.219,0.992 h 8.673 c 2.784,0 4.902,-0.536 6.35,-1.604 1.451,-1.071 2.175,-2.629 2.175,-4.673 0,-1.459 -0.338,-2.73 -1.022,-3.812 -0.68,-1.079 -1.653,-1.907 -2.918,-2.481 -1.265,-0.573 -2.773,-0.86 -4.528,-0.86 -0.582,0 -1.224,0.038 -1.926,0.114"
             style="fill:#231f20;fill-opacity:1;fill-rule:nonzero;stroke:none"
             id="path26" />
        </g>
        <g
           id="g28"
           transform="translate(89.1001,42.0614)">
          <path
             d="m 0,0 c 0.486,0.779 0.73,2.044 0.73,3.798 0,2.082 -0.298,3.634 -0.891,4.656 -0.593,1.022 -1.358,1.533 -2.293,1.533 -0.779,0 -1.412,-0.385 -1.899,-1.153 -0.486,-0.768 -0.729,-2.038 -0.729,-3.812 0,-2.063 0.297,-3.609 0.89,-4.642 0.593,-1.03 1.358,-1.547 2.293,-1.547 0.779,0 1.413,0.388 1.899,1.167 m -6.454,-2.538 c -1.11,0.601 -1.97,1.464 -2.585,2.582 -0.612,1.12 -0.918,2.429 -0.918,3.929 0,1.713 0.355,3.197 1.065,4.451 0.711,1.257 1.695,2.211 2.949,2.864 1.257,0.65 2.672,0.978 4.249,0.978 1.44,0 2.71,-0.292 3.809,-0.877 C 3.216,10.804 4.071,9.957 4.686,8.848 5.298,7.738 5.604,6.435 5.604,4.935 5.604,3.202 5.249,1.705 4.539,0.44 3.828,-0.825 2.85,-1.79 1.604,-2.451 0.358,-3.112 -1.044,-3.446 -2.599,-3.446 c -1.461,0 -2.746,0.304 -3.855,0.908"
             style="fill:#231f20;fill-opacity:1;fill-rule:nonzero;stroke:none"
             id="path30" />
        </g>
        <g
           id="g32"
           transform="translate(96.4812,40.4274)">
          <path
             d="M 0,0 C 0.117,0.194 0.372,0.369 0.76,0.525 1.15,0.68 1.588,0.768 2.074,0.79 v 17.373 l -1.957,0.35 c -0.019,0.155 -0.03,0.369 -0.03,0.642 0,0.467 0.041,0.858 0.118,1.169 1.519,0.487 3.476,0.711 5.869,0.67 L 6.777,20.819 V 0.7 L 8.848,0.497 c 0.019,-0.136 0.03,-0.333 0.03,-0.584 0,-0.468 -0.079,-0.935 -0.232,-1.402 H 0.117 C 0.019,-0.885 -0.019,-0.391 0,0"
             style="fill:#231f20;fill-opacity:1;fill-rule:nonzero;stroke:none"
             id="path34" />
        </g>
        <g
           id="g36"
           transform="translate(108.1795,34.8805)">
          <path
             d="M 0,0 C 0,0.426 0.046,1.003 0.145,1.721 0.399,1.645 0.73,1.582 1.137,1.533 1.547,1.484 1.896,1.459 2.189,1.459 3.161,1.459 4.047,1.653 4.847,2.044 5.645,2.432 6.219,3.066 6.569,3.94 5.79,3.845 5.216,3.815 4.847,3.853 l -4.907,12.996 -1.839,0.202 c -0.038,0.759 -0.011,1.421 0.087,1.986 H 6.686 C 6.763,18.338 6.793,17.84 6.774,17.548 6.675,17.354 6.468,17.179 6.145,17.023 5.826,16.868 5.46,16.78 5.05,16.761 L 7.561,9.517 C 7.738,9.012 7.883,8.457 8.001,7.853 h 0.145 l 3.008,8.996 -2.014,0.202 c -0.022,0.136 -0.03,0.322 -0.03,0.554 0,0.449 0.096,0.927 0.293,1.432 h 6.074 c 0.115,-0.565 0.164,-1.06 0.145,-1.489 -0.137,-0.194 -0.405,-0.369 -0.804,-0.525 -0.399,-0.155 -0.86,-0.243 -1.388,-0.262 L 8.643,3.386 C 8.118,1.946 7.533,0.779 6.891,-0.118 6.249,-1.014 5.429,-1.694 4.438,-2.161 3.446,-2.629 2.189,-2.864 0.672,-2.864 0.224,-1.987 0,-1.033 0,0"
             style="fill:#231f20;fill-opacity:1;fill-rule:nonzero;stroke:none"
             id="path38" />
        </g>
        <g
           id="g40"
           transform="translate(132.4735,46.4717)">
          <path
             d="m 0,0 c 0.391,0.506 0.585,1.227 0.585,2.161 0,0.992 -0.216,1.82 -0.642,2.482 -0.429,0.661 -1.003,0.991 -1.725,0.991 -0.623,0 -1.109,-0.251 -1.459,-0.756 C -3.59,4.369 -3.765,3.67 -3.765,2.773 c 0,-1.011 0.207,-1.852 0.625,-2.524 0.418,-0.673 0.97,-1.009 1.651,-1.009 0.604,0 1.101,0.254 1.489,0.76 m -5.227,-8.146 c -0.274,-0.448 -0.407,-0.934 -0.407,-1.461 0,-0.837 0.393,-1.471 1.18,-1.897 0.79,-0.429 1.844,-0.642 3.17,-0.642 1.011,0 1.809,0.134 2.393,0.407 0.585,0.273 0.878,0.683 0.878,1.227 0,0.312 -0.113,0.555 -0.337,0.73 -0.224,0.175 -0.603,0.328 -1.139,0.453 -0.536,0.126 -1.358,0.268 -2.467,0.424 -1.44,0.213 -2.531,0.467 -3.271,0.759 M 6.716,6.279 C 6.716,5.927 6.667,5.577 6.572,5.227 H 4.118 C 4.585,4.41 4.817,3.544 4.817,2.629 4.817,1.615 4.541,0.68 3.987,-0.175 3.432,-1.033 2.634,-1.713 1.593,-2.219 0.549,-2.724 -0.661,-2.978 -2.044,-2.978 c -0.623,0 -1.197,0.057 -1.721,0.174 L -4.058,-4 c 0.293,-0.175 0.812,-0.331 1.561,-0.468 0.751,-0.136 1.844,-0.281 3.287,-0.437 1.847,-0.197 3.229,-0.59 4.145,-1.183 0.915,-0.593 1.372,-1.59 1.372,-2.992 0,-1.831 -0.817,-3.178 -2.451,-4.044 -1.637,-0.866 -3.621,-1.301 -5.957,-1.301 -2.104,0 -3.777,0.347 -5.023,1.036 -1.246,0.691 -1.869,1.68 -1.869,2.965 0,0.74 0.205,1.377 0.612,1.912 0.41,0.536 0.954,0.959 1.637,1.271 -0.565,0.563 -0.847,1.273 -0.847,2.131 0,0.156 0.019,0.388 0.058,0.7 l 1.869,2.279 c -0.779,0.467 -1.369,1.076 -1.768,1.825 -0.399,0.749 -0.599,1.541 -0.599,2.38 0,1.03 0.273,1.989 0.82,2.875 0.544,0.885 1.328,1.593 2.35,2.117 1.022,0.525 2.224,0.79 3.607,0.79 1.596,0 2.918,-0.38 3.97,-1.14 C 3.924,7.397 5.102,7.875 6.249,8.148 6.561,7.681 6.716,7.055 6.716,6.279"
             style="fill:#231f20;fill-opacity:1;fill-rule:nonzero;stroke:none"
             id="path42" />
        </g>
        <g
           id="g44"
           transform="translate(153.4693,52.546)">
          <path
             d="m 0,0 c 0.183,-0.817 0.257,-1.686 0.219,-2.599 -1.129,0.02 -2.192,-0.087 -3.184,-0.322 -0.992,-0.232 -1.811,-0.623 -2.454,-1.167 v -7.331 l 2.599,-0.202 c 0.019,-0.429 0.016,-0.785 -0.014,-1.066 -0.03,-0.284 -0.112,-0.59 -0.248,-0.921 h -9.023 c -0.098,0.604 -0.137,1.099 -0.117,1.489 0.117,0.194 0.371,0.369 0.759,0.525 0.391,0.156 0.836,0.243 1.345,0.265 v 10.132 l -1.987,0.35 c -0.019,0.156 -0.03,0.38 -0.03,0.672 0,0.467 0.041,0.847 0.117,1.137 1.539,0.486 3.34,0.71 5.403,0.672 l 0.702,-0.175 v -3.765 c 0.426,0.855 1.123,1.688 2.088,2.495 0.961,0.808 1.97,1.347 3.022,1.62 C -0.454,1.421 -0.186,0.817 0,0"
             style="fill:#231f20;fill-opacity:1;fill-rule:nonzero;stroke:none"
             id="path46" />
        </g>
        <g
           id="g48"
           transform="translate(164.081,42.5588)">
          <path
             d="M 0,0 V 3.271 L -1.082,3.153 C -2.989,2.978 -3.943,2.211 -3.943,0.847 c 0,-0.546 0.15,-0.967 0.454,-1.271 0.3,-0.3 0.713,-0.45 1.24,-0.45 0.779,0 1.528,0.289 2.249,0.874 m 6.599,-0.874 c 0.232,-0.468 0.35,-0.995 0.35,-1.58 -0.312,-0.407 -0.785,-0.743 -1.416,-1.005 -0.634,-0.263 -1.3,-0.394 -2,-0.394 -0.801,0 -1.475,0.194 -2.03,0.582 -0.555,0.391 -0.94,0.927 -1.153,1.607 -0.468,-0.623 -1.101,-1.159 -1.899,-1.607 -0.798,-0.448 -1.733,-0.672 -2.804,-0.672 -1.265,0 -2.276,0.372 -3.036,1.112 -0.759,0.738 -1.139,1.711 -1.139,2.918 0,2.998 2.443,4.654 7.328,4.965 L 0,5.14 V 6.979 C 0,7.796 -0.202,8.413 -0.598,8.834 -1,9.252 -1.637,9.46 -2.511,9.46 -2.708,9.46 -3.058,9.441 -3.563,9.402 l -0.585,-3.27 c -0.311,-0.039 -0.566,-0.058 -0.76,-0.058 -0.543,0 -1.054,0.074 -1.532,0.219 -0.476,0.145 -0.812,0.344 -1.006,0.598 -0.118,0.856 -0.148,1.645 -0.087,2.367 0.524,0.623 1.379,1.197 2.568,1.721 1.186,0.525 2.53,0.79 4.03,0.79 1.946,0 3.372,-0.484 4.277,-1.446 C 4.246,9.359 4.7,8.137 4.7,6.659 V 0.35 c 0,-0.369 0.014,-0.667 0.044,-0.891 0.03,-0.224 0.103,-0.413 0.218,-0.568 z"
             style="fill:#231f20;fill-opacity:1;fill-rule:nonzero;stroke:none"
             id="path50" />
        </g>
        <g
           id="g52"
           transform="translate(172.981,51.729)">
          <path
             d="m 0,0 -1.839,0.202 c -0.038,0.76 -0.011,1.421 0.087,1.987 H 6.659 C 6.736,1.489 6.766,0.992 6.747,0.7 6.648,0.506 6.44,0.331 6.118,0.175 5.798,0.019 5.432,-0.068 5.022,-0.087 l 2.511,-7.244 c 0.197,-0.525 0.342,-1.08 0.44,-1.664 H 8.148 L 11.127,0 9.113,0.202 c -0.022,0.137 -0.03,0.342 -0.03,0.615 0,0.486 0.095,0.943 0.292,1.372 h 6.132 C 15.603,1.585 15.644,1.088 15.624,0.7 15.507,0.506 15.247,0.331 14.848,0.175 14.449,0.019 13.988,-0.068 13.463,-0.087 L 8.965,-12.468 c -0.349,-0.197 -0.809,-0.342 -1.371,-0.44 -0.566,-0.096 -1.14,-0.145 -1.725,-0.145 -0.251,0 -0.573,0.019 -0.961,0.057 z"
             style="fill:#231f20;fill-opacity:1;fill-rule:nonzero;stroke:none"
             id="path54" />
        </g>
        <g
           id="g56"
           transform="translate(209.691,42.5588)">
          <path
             d="M 0,0 V 3.271 L -1.082,3.153 C -2.989,2.978 -3.943,2.211 -3.943,0.847 c 0,-0.546 0.15,-0.967 0.454,-1.271 0.3,-0.3 0.713,-0.45 1.24,-0.45 0.779,0 1.528,0.289 2.249,0.874 m 6.599,-0.874 c 0.232,-0.468 0.35,-0.995 0.35,-1.58 -0.312,-0.407 -0.784,-0.743 -1.416,-1.005 -0.634,-0.263 -1.3,-0.394 -2,-0.394 -0.801,0 -1.475,0.194 -2.03,0.582 -0.555,0.391 -0.94,0.927 -1.153,1.607 -0.467,-0.623 -1.101,-1.159 -1.899,-1.607 -0.798,-0.448 -1.733,-0.672 -2.804,-0.672 -1.265,0 -2.276,0.372 -3.036,1.112 -0.759,0.738 -1.139,1.711 -1.139,2.918 0,2.998 2.443,4.654 7.328,4.965 L 0,5.14 V 6.979 C 0,7.796 -0.202,8.413 -0.598,8.834 -1,9.252 -1.637,9.46 -2.511,9.46 -2.708,9.46 -3.058,9.441 -3.563,9.402 l -0.585,-3.27 c -0.311,-0.039 -0.566,-0.058 -0.76,-0.058 -0.543,0 -1.054,0.074 -1.532,0.219 -0.476,0.145 -0.812,0.344 -1.006,0.598 -0.118,0.856 -0.148,1.645 -0.087,2.367 0.524,0.623 1.379,1.197 2.568,1.721 1.186,0.525 2.53,0.79 4.03,0.79 1.946,0 3.372,-0.484 4.277,-1.446 C 4.246,9.359 4.7,8.137 4.7,6.659 V 0.35 c 0,-0.369 0.014,-0.667 0.044,-0.891 0.03,-0.224 0.103,-0.413 0.218,-0.568 z"
             style="fill:#231f20;fill-opacity:1;fill-rule:nonzero;stroke:none"
             id="path58" />
        </g>
        <g
           id="g60"
           transform="translate(189.6781,40.4274)">
          <path
             d="M 0,0 C 0.118,0.194 0.372,0.369 0.76,0.525 1.15,0.68 1.596,0.768 2.104,0.79 v 10.132 l -1.986,0.35 c -0.02,0.155 -0.031,0.379 -0.031,0.672 0,0.467 0.041,0.847 0.118,1.136 1.538,0.487 3.495,0.711 5.869,0.673 L 6.777,13.578 V 0.7 L 8.848,0.497 c 0.019,-0.136 0.03,-0.333 0.03,-0.584 0,-0.468 -0.077,-0.935 -0.232,-1.402 H 0.118 C 0.019,-0.885 -0.019,-0.391 0,0"
             style="fill:#231f20;fill-opacity:1;fill-rule:nonzero;stroke:none"
             id="path62" />
        </g>
        <g
           id="g64"
           transform="translate(196.811,58.4062)">
          <path
             d="m 0,0 c 0,-1.569 -1.272,-2.84 -2.84,-2.84 -1.569,0 -2.84,1.271 -2.84,2.84 0,1.569 1.271,2.84 2.84,2.84 C -1.272,2.84 0,1.569 0,0"
             style="fill:#231f20;fill-opacity:1;fill-rule:nonzero;stroke:none"
             id="path66" />
        </g>
      </g>
    </g>
  </g>
</svg>
