<?xml version="1.0" encoding="UTF-8" standalone="no"?>
<!-- Created with Inkscape (http://www.inkscape.org/) -->

<svg
   width="80mm"
   height="80mm"
   viewBox="0 0 80 80"
   version="1.1"
   id="svg1"
   xmlns="http://www.w3.org/2000/svg"
   xmlns:svg="http://www.w3.org/2000/svg">
  <defs
     id="defs1">
    <rect
       x="123.03303"
       y="928.51489"
       width="310.46616"
       height="67.283684"
       id="rect76" />
    <rect
       x="123.03303"
       y="928.51489"
       width="310.46616"
       height="67.283684"
       id="rect77" />
  </defs>
  <g
     id="layer1">
    <g
       id="g75"
       transform="matrix(0.26458333,0,0,0.26458333,-16.003464,-22.575289)"
       style="display:inline">
      <g
         id="g72"
         transform="translate(-1.4759254)">
        <g
           id="g65">
          <circle
             style="fill:#000000;fill-opacity:1;stroke:none;stroke-width:3.77953;stroke-linejoin:round;stroke-dasharray:none;stroke-opacity:1"
             id="circle65"
             cx="213.39256"
             cy="204.03671"
             r="91.437828" />
        </g>
        <g
           id="g71"
           transform="translate(-0.46226213)">
          <path
             style="display:inline;fill:#ffffff;fill-opacity:1;stroke:none;stroke-width:1px;stroke-linecap:butt;stroke-linejoin:miter;stroke-opacity:1"
             d="m 251.08429,162.84777 c -8.52258,-4.46182 -24.00109,-7.85065 -37.20747,-7.85065 -13.20638,0 -27.49198,2.83537 -36.50921,6.17009 -1.57527,0.58256 -3.02547,1.23736 -4.11667,1.8243 -2.16188,-3.27508 -5.90478,-4.69444 -8.96938,-3.03121 -3.0646,1.66322 -4.95731,5.7007 -4.68903,10.00252 0.26828,4.30183 2.90207,7.98611 6.13715,8.99169 -0.4944,8.7903 2.9765,20.94348 5.80989,29.12801 3.25582,9.40475 8.0348,39.04194 6.45035,54.0942 -0.46484,4.41596 -0.85661,22.32754 5.76294,28.05607 6.61955,5.72853 19.47081,6.83846 29.13535,6.83474 9.66454,-0.004 19.47164,-0.55892 28.35602,-6.26391 8.88439,-5.70499 5.83912,-25.43763 5.83912,-32.19282 0,-16.63671 5.61261,-41.55966 7.81078,-47.02263 1.99135,-4.94898 6.82232,-21.59966 7.25836,-31.07486 3.23248,-0.99242 5.69635,-4.63422 5.96463,-8.93605 0.26828,-4.30182 -1.62443,-8.33929 -4.68903,-10.00252 -3.0646,-1.66323 -6.71095,-0.0964 -8.8707,3.1784 -1.01062,-0.59512 -2.16388,-1.21996 -3.4731,-1.90537 z"
             id="path65" />
          <ellipse
             style="fill:#000000;fill-opacity:1;stroke:#000000;stroke-width:1.00157;stroke-linejoin:round;stroke-dasharray:none;stroke-opacity:1"
             id="ellipse65"
             cx="213.14397"
             cy="207.88657"
             rx="7.7046533"
             ry="5.0013008" />
          <g
             id="g70">
            <g
               id="g67">
              <ellipse
                 style="fill:#000000;fill-opacity:1;stroke:#000000;stroke-width:1.00157;stroke-linejoin:round;stroke-opacity:1"
                 id="ellipse66"
                 cx="190.65582"
                 cy="185.59689"
                 rx="16.580624"
                 ry="20.185106" />
              <ellipse
                 style="fill:#ffffff;fill-opacity:1;stroke:#000000;stroke-width:1.00157;stroke-linejoin:round;stroke-opacity:1"
                 id="ellipse67"
                 cx="196.65137"
                 cy="178.84238"
                 rx="3.6645582"
                 ry="4.4455295" />
            </g>
            <g
               id="g69">
              <ellipse
                 style="fill:#000000;fill-opacity:1;stroke:#000000;stroke-width:1.00157;stroke-linejoin:round;stroke-opacity:1"
                 id="ellipse68"
                 cx="235.92268"
                 cy="185.59689"
                 rx="16.580624"
                 ry="20.185106" />
              <ellipse
                 style="fill:#ffffff;fill-opacity:1;stroke:#000000;stroke-width:1.00157;stroke-linejoin:round;stroke-opacity:1"
                 id="ellipse69"
                 cx="242.57909"
                 cy="178.84238"
                 rx="3.6645582"
                 ry="4.4455295" />
            </g>
          </g>
        </g>
      </g>
      <g
         id="g74"
         transform="translate(-4.2318589)">
        <path
           d="m 142.7132,964.91063 h -15.68 v -28.56 h 15.68 v 2.08 h -13.36 v 10.48 h 12.6 v 2.04 h -12.6 v 11.88 h 13.36 z m 14.67998,-21.64 q 0.8,0 1.52,0.12 0.76,0.08 1.36,0.24 l -0.32,2.08 q -0.64,-0.16 -1.28,-0.24 -0.64,-0.12 -1.4,-0.12 -1.44,0 -2.6,0.56 -1.16,0.56 -2,1.6 -0.84,1.04 -1.28,2.48 -0.44,1.44 -0.44,3.24 v 11.68 h -2.28 v -21.28 h 1.92 l 0.24,4 h 0.12 q 0.52,-1.24 1.4,-2.2 0.92,-1 2.2,-1.56 1.28,-0.6 2.84,-0.6 z m 29.23997,-0.04 q 3.2,0 4.96,1.8 1.8,1.8 1.8,5.68 v 14.2 h -2.28 v -14.12 q 0,-2.84 -1.28,-4.2 -1.28,-1.4 -3.48,-1.4 -3.08,0 -4.72,1.8 -1.6,1.76 -1.6,5.48 v 12.44 h -2.28 v -14.12 q 0,-1.92 -0.6,-3.16 -0.56,-1.24 -1.64,-1.84 -1.04,-0.6 -2.56,-0.6 -2,0 -3.4,0.84 -1.4,0.84 -2.16,2.52 -0.72,1.68 -0.72,4.28 v 12.08 h -2.24 v -21.28 h 1.8 l 0.36,3.4 h 0.12 q 0.56,-1.08 1.44,-1.92 0.92,-0.84 2.2,-1.36 1.28,-0.52 2.92,-0.52 2.36,0 3.96,1 1.6,1 2.24,3 h 0.16 q 0.92,-1.92 2.72,-2.96 1.84,-1.04 4.28,-1.04 z m 15.79996,0.4 v 21.28 h -2.24 v -21.28 z m -1.12,-7.88 q 0.76,0 1.16,0.48 0.4,0.44 0.4,1.24 0,0.84 -0.4,1.32 -0.4,0.44 -1.16,0.44 -0.72,0 -1.12,-0.44 -0.4,-0.48 -0.4,-1.32 0,-0.8 0.4,-1.24 0.4,-0.48 1.12,-0.48 z m 17.71999,7.48 q 3.64,0 5.56,1.88 1.92,1.88 1.92,5.92 v 13.88 h -2.24 v -13.76 q 0,-3.08 -1.4,-4.52 -1.4,-1.44 -4.12,-1.44 -3.48,0 -5.24,2.04 -1.76,2.04 -1.76,6.08 v 11.6 h -2.24 v -21.28 h 1.8 l 0.36,3.68 h 0.12 q 0.6,-1.16 1.6,-2.08 1,-0.92 2.4,-1.44 1.44,-0.56 3.24,-0.56 z m 22.36003,0 q 2.76,0 4.56,1.28 1.84,1.24 2.76,3.44 0.96,2.2 0.96,5.08 v 1.52 h -15.2 q 0,4.28 1.96,6.52 2,2.24 5.64,2.24 2,0 3.48,-0.32 1.48,-0.32 3.24,-1.12 v 2.08 q -1.6,0.72 -3.16,1.04 -1.56,0.32 -3.64,0.32 -3.16,0 -5.4,-1.32 -2.2,-1.32 -3.36,-3.76 -1.12,-2.48 -1.12,-5.76 0,-3.28 1.08,-5.8 1.08,-2.52 3.16,-3.96 2.08,-1.48 5.04,-1.48 z m 0,1.92 q -2.96,0 -4.76,1.96 -1.8,1.92 -2.12,5.56 h 12.8 q 0,-2.24 -0.64,-3.92 -0.64,-1.68 -1.96,-2.64 -1.28,-0.96 -3.32,-0.96 z"
           id="text72"
           style="font-weight:300;font-size:40px;line-height:1.25;font-family:'Noto Sans';-inkscape-font-specification:'Noto Sans, Light';letter-spacing:0px;word-spacing:0px;white-space:pre"
           transform="translate(91.311935,-631.94362)"
           aria-label="Ermine" />
        <path
           d="m 133.35322,943.09898 h 6.90667 v 8.82668 q -1.41333,0.56 -2.96,0.85333 -1.54667,0.26667 -3.33334,0.26667 -3.01334,0 -5.09334,-1.14667 -2.05334,-1.17333 -3.12,-3.36 -1.06667,-2.18667 -1.06667,-5.25334 0,-2.90667 1.17333,-5.09334 1.17334,-2.21334 3.33334,-3.46667 2.18667,-1.28 5.22667,-1.28 1.57334,0 2.96001,0.29333 1.41333,0.26667 2.64,0.85333 l -0.58667,1.36001 q -1.2,-0.56 -2.48,-0.82667 -1.28,-0.29334 -2.61334,-0.29334 -2.50667,0 -4.32,1.06667 -1.81334,1.06667 -2.77334,2.96001 -0.96,1.89333 -0.96,4.42667 0,2.74667 0.90667,4.61334 0.90667,1.86667 2.66667,2.82667 1.78667,0.96 4.4,0.96 1.41334,0 2.50667,-0.18667 1.09334,-0.21333 1.97334,-0.50667 v -6.50667 h -5.38667 z m 16.34671,-4.74667 q 2.4,0 3.57334,1.17333 1.17333,1.17334 1.17333,3.73334 v 9.52001 h -1.14667 l -0.26667,-2.4 h -0.08 q -0.50666,0.8 -1.17333,1.41334 -0.64,0.58666 -1.57334,0.93333 -0.90666,0.32 -2.24,0.32 -1.33333,0 -2.32,-0.45333 -0.98667,-0.48 -1.52,-1.36 -0.53334,-0.88001 -0.53334,-2.16001 0,-2.10667 1.73334,-3.2 1.73333,-1.12 5.04,-1.28 l 2.58667,-0.10667 v -1.01333 q 0,-2.10667 -0.85333,-2.96001 -0.82667,-0.88 -2.48,-0.88 -1.09334,0 -2.10667,0.29333 -0.98667,0.26667 -2,0.77334 l -0.48001,-1.2 q 0.98667,-0.50667 2.18667,-0.82667 1.20001,-0.32 2.48001,-0.32 z m 0.82667,7.36001 q -2.69334,0.13333 -4.02668,0.96 -1.33333,0.8 -1.33333,2.42667 0,1.30667 0.82667,2 0.82666,0.66667 2.24,0.66667 2.26667,0 3.46667,-1.25334 1.22667,-1.25333 1.25333,-3.52 v -1.38667 z m 23.25334,-7.38668 q 2.13334,0 3.30667,1.2 1.2,1.20001 1.2,3.78668 v 9.46667 h -1.52 v -9.41334 q 0,-1.89334 -0.85333,-2.8 -0.85334,-0.93334 -2.32001,-0.93334 -2.05333,0 -3.14667,1.2 -1.06667,1.17334 -1.06667,3.65334 v 8.29334 h -1.52 v -9.41334 q 0,-1.28 -0.4,-2.10667 -0.37333,-0.82667 -1.09333,-1.22667 -0.69334,-0.4 -1.70667,-0.4 -1.33334,0 -2.26667,0.56 -0.93334,0.56 -1.44,1.68 -0.48,1.12 -0.48,2.85334 v 8.05334 h -1.49334 v -14.18668 h 1.2 l 0.24,2.26667 h 0.08 q 0.37334,-0.72 0.96,-1.28 0.61334,-0.56 1.46667,-0.90667 0.85334,-0.34667 1.94667,-0.34667 1.57334,0 2.64,0.66667 1.06667,0.66667 1.49334,2 h 0.10667 q 0.61333,-1.28 1.81333,-1.97333 1.22667,-0.69334 2.85334,-0.69334 z m 14.4,0 q 1.84,0 3.04,0.85334 1.22667,0.82666 1.84,2.29333 0.64,1.46667 0.64,3.38667 v 1.01334 H 183.5666 q 0,2.85334 1.30666,4.34667 1.33334,1.49334 3.76001,1.49334 1.33333,0 2.32,-0.21334 0.98667,-0.21333 2.16,-0.74667 v 1.38667 q -1.06666,0.48 -2.10666,0.69334 -1.04001,0.21333 -2.42667,0.21333 -2.10667,0 -3.60001,-0.88 -1.46667,-0.88 -2.24,-2.50667 -0.74667,-1.65334 -0.74667,-3.84 0,-2.18667 0.72,-3.86668 0.72,-1.68 2.10667,-2.64 1.38667,-0.98667 3.36001,-0.98667 z m 0,1.28 q -1.97334,0 -3.17334,1.30667 -1.2,1.28 -1.41334,3.70667 h 8.53335 q 0,-1.49333 -0.42667,-2.61333 -0.42667,-1.12 -1.30667,-1.76001 -0.85333,-0.64 -2.21333,-0.64 z m 27.1467,8.24001 q 0,1.70667 -0.85333,2.88001 -0.82667,1.14667 -2.32001,1.73333 -1.49333,0.58667 -3.38667,0.58667 -1.17333,0 -2.10667,-0.13333 -0.93333,-0.10667 -1.70666,-0.26667 -0.77334,-0.18667 -1.38667,-0.42667 v -1.54667 q 1.01333,0.40001 2.34667,0.72001 1.33333,0.29333 2.93333,0.29333 1.46667,0 2.56001,-0.42667 1.12,-0.42667 1.73333,-1.25333 0.64,-0.82667 0.64,-2.08001 0,-1.14666 -0.53333,-1.86666 -0.50667,-0.72001 -1.6,-1.25334 -1.06667,-0.56 -2.74667,-1.12 -1.2,-0.42667 -2.16001,-0.88 -0.93333,-0.45334 -1.6,-1.06667 -0.66667,-0.61333 -1.01333,-1.44 -0.34667,-0.82667 -0.34667,-2 0,-1.57334 0.8,-2.64001 0.8,-1.06667 2.16,-1.62667 1.38667,-0.56 3.12001,-0.56 1.38667,0 2.64,0.26667 1.25334,0.24 2.37334,0.74667 l -0.50667,1.33333 q -1.12,-0.48 -2.26667,-0.72 -1.14667,-0.24 -2.29334,-0.24 -1.33333,0 -2.34666,0.4 -0.98667,0.37334 -1.54667,1.14667 -0.56,0.74667 -0.56,1.86667 0,1.22667 0.53333,1.97333 0.53333,0.74667 1.54667,1.25334 1.01333,0.48 2.48,0.98667 1.68,0.58666 2.88001,1.25333 1.22666,0.64 1.86666,1.6 0.66667,0.96001 0.66667,2.50667 z m 7.70666,3.92001 q 0.58667,0 1.12001,-0.08 0.53333,-0.10667 0.93333,-0.24 v 1.22667 q -0.4,0.16 -1.01333,0.26666 -0.58667,0.10667 -1.25334,0.10667 -1.17333,0 -2,-0.42667 -0.82667,-0.45333 -1.28,-1.38666 -0.42667,-0.93334 -0.42667,-2.40001 v -9.01334 h -2.08 v -0.85334 l 2.08,-0.48 0.56,-3.28 h 0.96 v 3.38667 h 4.37334 v 1.22667 h -4.37334 v 8.96001 q 0,1.46667 0.58667,2.24 0.58667,0.74667 1.81333,0.74667 z m 16.24003,-13.17335 v 14.18668 h -1.25334 l -0.21333,-2.42667 h -0.08 q -0.37333,0.77334 -1.06667,1.38667 -0.66667,0.61334 -1.6,0.96 -0.93333,0.34667 -2.16,0.34667 -1.65334,0 -2.77334,-0.56 -1.09333,-0.58667 -1.65334,-1.73334 -0.56,-1.14666 -0.56,-2.85333 v -9.30668 h 1.52001 v 9.17334 q 0,2.02667 0.90666,3.01334 0.93334,0.96 2.72001,0.96 1.57333,0 2.61333,-0.58666 1.04001,-0.61334 1.54667,-1.81334 0.53334,-1.2 0.53334,-2.98667 v -7.76001 z m 9.81336,14.45335 q -2.85333,0 -4.4,-1.81333 -1.52001,-1.84001 -1.52001,-5.38668 0,-3.68 1.60001,-5.60001 1.62667,-1.92 4.45334,-1.92 1.2,0 2.08,0.37334 0.88,0.34666 1.49333,0.96 0.64,0.61333 0.98667,1.38667 h 0.10667 q -0.0267,-0.64001 -0.08,-1.38667 -0.0267,-0.77334 -0.0267,-1.38667 v -5.76001 h 1.52 v 20.26669 h -1.22666 l -0.21334,-2.48 h -0.08 q -0.37333,0.74667 -0.98667,1.38667 -0.61333,0.61333 -1.52,0.98667 -0.90667,0.37333 -2.18667,0.37333 z m 0.18667,-1.30667 q 2.48,0 3.49334,-1.49333 1.04,-1.49334 1.04,-4.32001 v -0.24 q 0,-2.93334 -1.04,-4.48 -1.01334,-1.57334 -3.38667,-1.57334 -2.29334,0 -3.46668,1.62667 -1.17333,1.6 -1.17333,4.61334 0,2.88 1.12,4.37334 1.12,1.49333 3.41334,1.49333 z m 12.1867,-13.14668 v 14.18668 h -1.49333 v -14.18668 z m -0.74667,-5.25334 q 0.50667,0 0.77334,0.32 0.26666,0.29333 0.26666,0.82667 0,0.56 -0.26666,0.88 -0.26667,0.29333 -0.77334,0.29333 -0.48,0 -0.74666,-0.29333 -0.26667,-0.32 -0.26667,-0.88 0,-0.53334 0.26667,-0.82667 0.26666,-0.32 0.74666,-0.32 z m 17.33337,12.34668 q 0,1.65334 -0.42667,3.01334 -0.4,1.33333 -1.22667,2.32 -0.8,0.96 -2,1.49334 -1.2,0.53333 -2.74667,0.53333 -1.46667,0 -2.64001,-0.50667 -1.14666,-0.53333 -1.97333,-1.49333 -0.82667,-0.98667 -1.25334,-2.34667 -0.42666,-1.36 -0.42666,-3.01334 0,-2.32 0.74666,-3.94667 0.77334,-1.65334 2.21334,-2.53334 1.46667,-0.88 3.46667,-0.88 2.02667,0 3.41334,0.93334 1.41333,0.90666 2.13333,2.56 0.72001,1.65334 0.72001,3.86667 z m -11.12002,0 q 0,1.81334 0.50667,3.20001 0.50667,1.36 1.57333,2.10666 1.06667,0.74667 2.66667,0.74667 1.65334,0 2.72001,-0.74667 1.06667,-0.77333 1.57333,-2.13333 0.50667,-1.38667 0.50667,-3.17334 0,-1.78667 -0.48,-3.14667 -0.48,-1.36 -1.52,-2.13334 -1.04,-0.77333 -2.72001,-0.77333 -2.42667,0 -3.62667,1.6 -1.2,1.6 -1.2,4.45334 z"
           id="text73"
           style="font-weight:300;font-size:26.6667px;line-height:1.25;font-family:'Noto Sans';-inkscape-font-specification:'Noto Sans, Light';letter-spacing:0px;word-spacing:0px;white-space:pre"
           transform="translate(11.137701,-592.63448)"
           aria-label="Game Studio" />
        <path
           d="m 129.99193,304.40701 -7.28,28.56 h -6.88 l -3.88,-15 q -0.12,-0.44 -0.32,-1.32 -0.16,-0.88 -0.4,-1.92 -0.2,-1.04 -0.36,-1.96 -0.16,-0.96 -0.24,-1.48 -0.04,0.52 -0.24,1.48 -0.16,0.92 -0.36,1.96 -0.2,1 -0.4,1.92 -0.2,0.88 -0.32,1.36 l -3.84,14.96 h -6.880002 l -7.28,-28.56 h 5.96 l 3.640002,15.6 q 0.16,0.68 0.36,1.68 0.2,0.96 0.4,2.04 0.2,1.04 0.36,2.04 0.2,1 0.28,1.72 0.08,-0.76 0.24,-1.72 0.16,-1 0.36,-2 0.2,-1.04 0.36,-1.92 0.2,-0.92 0.36,-1.44 l 4.16,-16 h 5.72 l 4.16,16 q 0.12,0.52 0.32,1.44 0.2,0.88 0.4,1.92 0.2,1.04 0.36,2.04 0.16,0.96 0.24,1.68 0.12,-1 0.36,-2.36 0.24,-1.4 0.52,-2.8 0.32,-1.4 0.52,-2.32 l 3.64,-15.6 z m 8.96004,4.28 q 0,1.76 -0.12,3.12 -0.08,1.32 -0.16,2.12 h 0.32 q 0.72,-1.16 1.68,-1.84 0.96,-0.68 2.12,-1 1.2,-0.36 2.52,-0.36 2.36,0 4.12,0.84 1.76,0.84 2.72,2.6 1,1.72 1,4.56 v 14.24 h -6.04 v -12.72 q 0,-2.36 -0.84,-3.52 -0.84,-1.2 -2.64,-1.2 -1.76,0 -2.8,0.84 -1,0.84 -1.44,2.44 -0.44,1.6 -0.44,3.92 v 10.24 h -6.04 v -30.4 h 6.04 z m 26.03998,2.44 v 21.84 h -6.04 v -21.84 z m -3,-8.6 q 1.32,0 2.28,0.64 1,0.6 1,2.32 0,1.64 -1,2.28 -0.96,0.64 -2.28,0.64 -1.36,0 -2.32,-0.64 -0.96,-0.64 -0.96,-2.28 0,-1.72 0.96,-2.32 0.96,-0.64 2.32,-0.64 z m 18.27999,26.08 q 1,0 1.92,-0.2 0.92,-0.2 1.84,-0.48 v 4.44 q -0.96,0.4 -2.4,0.68 -1.4,0.32 -3.08,0.32 -1.96,0 -3.52,-0.64 -1.52,-0.64 -2.44,-2.2 -0.88,-1.6 -0.88,-4.4 v -10.52 h -2.84 v -2.52 l 3.28,-2 1.72,-4.6 h 3.8 v 4.64 h 6.12 v 4.48 h -6.12 v 10.52 q 0,1.24 0.72,1.88 0.72,0.6 1.88,0.6 z m 17.28,-17.88 q 3.04,0 5.24,1.16 2.2,1.12 3.36,3.36 1.2,2.2 1.2,5.4 v 2.92 h -14.04 q 0.08,2.48 1.52,3.92 1.44,1.4 4.12,1.4 2.04,0 3.72,-0.4 1.68,-0.4 3.44,-1.2 v 4.52 q -1.6,0.8 -3.4,1.16 -1.76,0.4 -4.4,0.4 -3.24,0 -5.76,-1.2 -2.48,-1.2 -3.92,-3.68 -1.44,-2.52 -1.44,-6.28 0,-3.84 1.28,-6.36 1.32,-2.56 3.64,-3.84 2.36,-1.28 5.44,-1.28 z m 0.16,4.28 q -1.8,0 -2.92,1.16 -1.12,1.12 -1.32,3.36 h 8.24 q 0,-1.32 -0.44,-2.32 -0.44,-1 -1.36,-1.6 -0.88,-0.6 -2.2,-0.6 z"
           id="text74"
           style="font-weight:bold;font-size:40px;line-height:1.25;font-family:'Noto Sans';-inkscape-font-specification:'Noto Sans, Bold';letter-spacing:0px;word-spacing:0px;fill:#ffffff;stroke:#000000"
           aria-label="White" />
      </g>
    </g>
  </g>
</svg>
