<?xml version="1.0" encoding="UTF-8" standalone="no"?>
<!-- Created with Inkscape (http://www.inkscape.org/) -->

<svg
   width="800"
   height="500"
   viewBox="0 0 211.66664 132.29165"
   version="1.1"
   id="svg1"
   xmlns="http://www.w3.org/2000/svg"
   xmlns:svg="http://www.w3.org/2000/svg">
  <defs
     id="defs1" />
  <g
     id="layer1">
    <path
       id="path1"
       d="m 135.427,58.868631 c 5.71746,-2.233328 9.77496,-8.260746 6.95327,-16.649352 -0.22914,-0.583525 -0.5738,-1.515834 -1.01162,-2.695014 -2.95402,-7.976247 -9.87453,-26.656971 -15.84488,-32.8171196 -2.42148,-2.4991569 -5.64621,-3.5678671 -9.50625,-2.8168226 -0.0443,0.00883 -0.0885,0.017576 -0.13099,0.026381 -5.44875,1.0844754 -8.64799,6.7545722 -6.87477,12.0200072 2.84071,8.429868 3.68159,19.387259 1.36736,27.451734 l -0.09,0.314823 -1.56483,-0.450404 0.09,-0.313182 c 2.36159,-8.234047 0.92627,-19.49492 -3.74796,-29.388436 -0.25728,-0.44554 -0.55642,-0.869221 -0.904,-1.252026 -3.1693,-3.472783 -8.227546,-4.710244 -13.154639,-3.1437774 -4.128769,1.3118904 -8.635447,4.8951424 -8.904149,11.0204794 -0.01761,0.208925 -0.04572,0.437863 -0.07882,0.697247 -0.882149,6.797061 -4.097154,13.20364 -9.054244,18.040535 l -0.768041,0.747411 c -5.107231,4.955856 -9.141268,8.870949 -5.418801,16.42838 0.627623,1.272645 0.851786,1.428833 1.659912,2.258781 2.845158,2.926095 7.071828,4.206451 11.303367,3.427075 4.832429,-0.891461 8.619657,-3.45863 11.257616,-7.63024 6.620204,-10.465723 4.914593,-27.183028 2.584578,-35.922884 l -0.0806,-0.301873 1.544161,-0.479121 0.0967,0.313212 c 3.286229,10.765989 3.646379,27.986266 -2.127685,38.81091 2.179905,4.244084 6.642058,6.975508 11.420265,6.975508 0.009,0 0.0146,0 0.0206,0 4.35658,-0.104364 7.92731,-2.247474 10.60817,-6.368511 6.9553,-10.691907 6.22652,-32.320586 2.34257,-41.684815 l -0.12336,-0.297007 1.494,-0.6341 0.12776,0.294165 c 3.56304,8.08674 5.10116,23.505076 2.39317,34.334591 -1.04,4.161912 0.97401,8.560965 4.91782,10.245992 2.657,1.135051 6.26091,0.587946 9.20438,-0.561284"
       style="fill:#000000;fill-opacity:1;fill-rule:nonzero;stroke:none;stroke-width:0.352778" />
    <text
       id="text1"
       xml:space="preserve"
       x="-0.33263862"
       y="99.008423"
       style="font-size:4.85591px;stroke-width:0.352778"><tspan
         style="font-variant:normal;font-weight:normal;font-size:27.6776px;font-family:'DejaVu Sans';writing-mode:lr-tb;fill:#000000;fill-opacity:1;fill-rule:nonzero;stroke:none;stroke-width:0.352778"
         x="-0.33263862 23.497782 29.946678 43.398018 58.620728 73.400566 79.79409 94.573921 100.08179 110.95911 125.51764 139.49483 163.3253 178.8801 194.10281"
         y="99.008423"
         id="tspan1">michèle reymond</tspan></text>
    <text
       id="text2"
       xml:space="preserve"
       x="22.999996"
       y="124.59387"
       style="font-size:4.85591px;stroke-width:0.352778"><tspan
         style="font-variant:normal;font-weight:normal;font-size:18.8599px;font-family:'DejaVu Sans';writing-mode:lr-tb;fill:#000000;fill-opacity:1;fill-rule:nonzero;stroke:none;stroke-width:0.352778"
         x="22.999996 39.012123 49.385117 56.118141 60.116463 70.810097 81.069946 85.10598 96.591713 100.62782 104.62615 108.60558 112.58505 122.29797 130.27585 137.00887 144.15678 155.11444 161.84749 165.84578 176.53946"
         y="124.59387"
         id="tspan2">motion &amp; illustration</tspan></text>
  </g>
</svg>
