<?xml version="1.0" encoding="UTF-8" standalone="no"?>
<!-- Created with Inkscape (http://www.inkscape.org/) -->

<svg
   width="105.09197mm"
   height="20.849503mm"
   viewBox="0 0 105.09197 20.849503"
   version="1.1"
   id="svg1"
   xmlns="http://www.w3.org/2000/svg"
   xmlns:svg="http://www.w3.org/2000/svg">
  <defs
     id="defs1">
    <clipPath
       clipPathUnits="userSpaceOnUse"
       id="clipPath3">
      <path
         d="M 0,841.89 H 595.28 V 0 H 0 Z"
         transform="translate(-165.84231,-656.74652)"
         id="path3" />
    </clipPath>
    <clipPath
       clipPathUnits="userSpaceOnUse"
       id="clipPath5">
      <path
         d="M 0,841.89 H 595.28 V 0 H 0 Z"
         transform="translate(-171.5356,-646.16981)"
         id="path5" />
    </clipPath>
    <clipPath
       clipPathUnits="userSpaceOnUse"
       id="clipPath7">
      <path
         d="M 0,841.89 H 595.28 V 0 H 0 Z"
         transform="translate(-183.0894,-651.23432)"
         id="path7" />
    </clipPath>
    <clipPath
       clipPathUnits="userSpaceOnUse"
       id="clipPath9">
      <path
         d="M 0,841.89 H 595.28 V 0 H 0 Z"
         transform="translate(-186.52491,-656.74652)"
         id="path9" />
    </clipPath>
    <clipPath
       clipPathUnits="userSpaceOnUse"
       id="clipPath11">
      <path
         d="M 0,841.89 H 595.28 V 0 H 0 Z"
         transform="translate(-201.9214,-652.76012)"
         id="path11" />
    </clipPath>
    <clipPath
       clipPathUnits="userSpaceOnUse"
       id="clipPath13">
      <path
         d="M 0,841.89 H 595.28 V 0 H 0 Z"
         transform="translate(-205.64311,-646.16981)"
         id="path13" />
    </clipPath>
    <clipPath
       clipPathUnits="userSpaceOnUse"
       id="clipPath15">
      <path
         d="M 0,841.89 H 595.28 V 0 H 0 Z"
         transform="translate(-217.2163,-653.95982)"
         id="path15" />
    </clipPath>
    <clipPath
       clipPathUnits="userSpaceOnUse"
       id="clipPath17">
      <path
         d="M 0,841.89 H 595.28 V 0 H 0 Z"
         transform="translate(-227.77101,-661.05851)"
         id="path17" />
    </clipPath>
    <clipPath
       clipPathUnits="userSpaceOnUse"
       id="clipPath19">
      <path
         d="M 0,841.89 H 595.28 V 0 H 0 Z"
         transform="translate(-236.02881,-652.76012)"
         id="path19" />
    </clipPath>
    <clipPath
       clipPathUnits="userSpaceOnUse"
       id="clipPath21">
      <path
         d="M 0,841.89 H 595.28 V 0 H 0 Z"
         transform="translate(-245.05911,-653.95982)"
         id="path21" />
    </clipPath>
    <clipPath
       clipPathUnits="userSpaceOnUse"
       id="clipPath23">
      <path
         d="M 0,841.89 H 595.28 V 0 H 0 Z"
         transform="translate(-168.3325,-638.19812)"
         id="path23" />
    </clipPath>
    <clipPath
       clipPathUnits="userSpaceOnUse"
       id="clipPath25">
      <path
         d="M 0,841.89 H 595.28 V 0 H 0 Z"
         transform="translate(-173.8843,-639.02192)"
         id="path25" />
    </clipPath>
    <clipPath
       clipPathUnits="userSpaceOnUse"
       id="clipPath27">
      <path
         d="M 0,841.89 H 595.28 V 0 H 0 Z"
         transform="translate(-179.0347,-639.02192)"
         id="path27" />
    </clipPath>
    <clipPath
       clipPathUnits="userSpaceOnUse"
       id="clipPath29">
      <path
         d="M 0,841.89 H 595.28 V 0 H 0 Z"
         transform="translate(-181.105,-637.84751)"
         id="path29" />
    </clipPath>
    <clipPath
       clipPathUnits="userSpaceOnUse"
       id="clipPath31">
      <path
         d="M 0,841.89 H 595.28 V 0 H 0 Z"
         transform="translate(-186.11181,-635.16982)"
         id="path31" />
    </clipPath>
    <clipPath
       clipPathUnits="userSpaceOnUse"
       id="clipPath33">
      <path
         d="M 0,841.89 H 595.28 V 0 H 0 Z"
         transform="translate(-195.4126,-636.51892)"
         id="path33" />
    </clipPath>
    <clipPath
       clipPathUnits="userSpaceOnUse"
       id="clipPath35">
      <path
         d="M 0,841.89 H 595.28 V 0 H 0 Z"
         transform="translate(-203.24071,-638.19812)"
         id="path35" />
    </clipPath>
    <clipPath
       clipPathUnits="userSpaceOnUse"
       id="clipPath37">
      <path
         d="M 0,841.89 H 595.28 V 0 H 0 Z"
         transform="translate(-207.19581,-637.42571)"
         id="path37" />
    </clipPath>
    <clipPath
       clipPathUnits="userSpaceOnUse"
       id="clipPath39">
      <path
         d="M 0,841.89 H 595.28 V 0 H 0 Z"
         transform="translate(-210.7192,-635.16982)"
         id="path39" />
    </clipPath>
    <clipPath
       clipPathUnits="userSpaceOnUse"
       id="clipPath41">
      <path
         d="M 0,841.89 H 595.28 V 0 H 0 Z"
         transform="translate(-219.70071,-638.32172)"
         id="path41" />
    </clipPath>
    <clipPath
       clipPathUnits="userSpaceOnUse"
       id="clipPath43">
      <path
         d="M 0,841.89 H 595.28 V 0 H 0 Z"
         transform="translate(-221.59621,-635.16982)"
         id="path43" />
    </clipPath>
    <clipPath
       clipPathUnits="userSpaceOnUse"
       id="clipPath45">
      <path
         d="M 0,841.89 H 595.28 V 0 H 0 Z"
         transform="translate(-233.43121,-638.32172)"
         id="path45" />
    </clipPath>
    <clipPath
       clipPathUnits="userSpaceOnUse"
       id="clipPath47">
      <path
         d="M 0,841.89 H 595.28 V 0 H 0 Z"
         transform="translate(-235.3267,-635.16982)"
         id="path47" />
    </clipPath>
    <clipPath
       clipPathUnits="userSpaceOnUse"
       id="clipPath49">
      <path
         d="M 0,841.89 H 595.28 V 0 H 0 Z"
         transform="translate(-241.11471,-640.52582)"
         id="path49" />
    </clipPath>
    <clipPath
       clipPathUnits="userSpaceOnUse"
       id="clipPath51">
      <path
         d="M 0,841.89 H 595.28 V 0 H 0 Z"
         transform="translate(-243.78271,-636.46772)"
         id="path51" />
    </clipPath>
    <clipPath
       clipPathUnits="userSpaceOnUse"
       id="clipPath53">
      <path
         d="M 0,841.89 H 595.28 V 0 H 0 Z"
         transform="translate(-206.26711,-628.72202)"
         id="path53" />
    </clipPath>
    <clipPath
       clipPathUnits="userSpaceOnUse"
       id="clipPath55">
      <path
         d="M 0,841.89 H 595.28 V 0 H 0 Z"
         transform="translate(-214.147,-624.16982)"
         id="path55" />
    </clipPath>
    <clipPath
       clipPathUnits="userSpaceOnUse"
       id="clipPath57">
      <path
         d="M 0,841.89 H 595.28 V 0 H 0 Z"
         transform="translate(-222.6958,-627.19811)"
         id="path57" />
    </clipPath>
    <clipPath
       clipPathUnits="userSpaceOnUse"
       id="clipPath59">
      <path
         d="M 0,841.89 H 595.28 V 0 H 0 Z"
         transform="translate(-225.74461,-625.53941)"
         id="path59" />
    </clipPath>
    <clipPath
       clipPathUnits="userSpaceOnUse"
       id="clipPath61">
      <path
         d="M 0,841.89 H 595.28 V 0 H 0 Z"
         id="path61" />
    </clipPath>
    <clipPath
       clipPathUnits="userSpaceOnUse"
       id="clipPath63">
      <path
         d="M 0,841.89 H 595.28 V 0 H 0 Z"
         transform="translate(-233.09811,-629.52581)"
         id="path63" />
    </clipPath>
    <clipPath
       clipPathUnits="userSpaceOnUse"
       id="clipPath65">
      <path
         d="M 0,841.89 H 595.28 V 0 H 0 Z"
         transform="translate(-238.72221,-627.19811)"
         id="path65" />
    </clipPath>
    <clipPath
       clipPathUnits="userSpaceOnUse"
       id="clipPath67">
      <path
         d="M 0,841.89 H 595.28 V 0 H 0 Z"
         transform="translate(-241.11181,-629.52581)"
         id="path67" />
    </clipPath>
    <clipPath
       clipPathUnits="userSpaceOnUse"
       id="clipPath69">
      <path
         d="M 0,841.89 H 595.28 V 0 H 0 Z"
         transform="translate(-243.7798,-625.46771)"
         id="path69" />
    </clipPath>
    <clipPath
       clipPathUnits="userSpaceOnUse"
       id="clipPath71">
      <path
         d="M 0,841.89 H 595.28 V 0 H 0 Z"
         transform="translate(-426.72851,-616.76752)"
         id="path71" />
    </clipPath>
    <clipPath
       clipPathUnits="userSpaceOnUse"
       id="clipPath73">
      <path
         d="M 0,841.89 H 595.28 V 0 H 0 Z"
         id="path73" />
    </clipPath>
    <clipPath
       clipPathUnits="userSpaceOnUse"
       id="clipPath75">
      <path
         d="M 0,841.89 H 595.28 V 0 H 0 Z"
         transform="translate(-178.36131,-665.23862)"
         id="path75" />
    </clipPath>
    <clipPath
       clipPathUnits="userSpaceOnUse"
       id="clipPath77">
      <path
         d="M 0,841.89 H 595.28 V 0 H 0 Z"
         transform="translate(-183.2451,-665.88761)"
         id="path77" />
    </clipPath>
  </defs>
  <g
     id="layer1"
     transform="translate(-52.454015,-63.352697)">
    <g
       id="g1"
       transform="translate(-5.7957242,6.8057943)">
      <path
         id="path1"
         d="m 161.80743,74.440461 1.45944,1.459089 -1.45944,1.459441"
         style="fill:none;stroke:#231f20;stroke-width:0.105833;stroke-linecap:butt;stroke-linejoin:miter;stroke-miterlimit:10;stroke-dasharray:none;stroke-opacity:1" />
      <path
         id="path2"
         d="M 0,0 V 3.499 H 2.521 V 0 H 4.597 V -2.034 H 2.521 v -5.98 c 0,-0.569 0.286,-0.732 0.917,-0.732 0.385,0 0.792,0.122 1.159,0.204 v -2.075 C 3.905,-10.699 3.295,-10.78 2.604,-10.78 0.731,-10.78 0,-9.844 0,-8.339 v 6.305 H -1.465 V 0 Z"
         style="fill:#5e8089;fill-opacity:1;fill-rule:nonzero;stroke:none"
         transform="matrix(0.35277776,0,0,-0.35277776,58.870893,61.914417)"
         clip-path="url(#clipPath3)" />
      <path
         id="path4"
         d="m 0,0 v 10.577 h 2.319 v -1.81 h 0.04 c 0.611,1.261 1.465,1.973 2.97,2.013 V 8.116 c -0.122,0.02 -0.264,0.02 -0.447,0.02 -1.261,0 -2.36,-1.444 -2.36,-1.709 L 2.522,0 Z"
         style="fill:#5e8089;fill-opacity:1;fill-rule:nonzero;stroke:none"
         transform="matrix(0.35277776,0,0,-0.35277776,60.879361,65.645642)"
         clip-path="url(#clipPath5)" />
      <path
         id="path6"
         d="m 0,0 c -1.688,-0.325 -3.539,-0.671 -3.539,-2.156 0,-0.793 0.508,-1.24 1.22,-1.24 0.794,0 1.79,0.67 2.319,1.118 z m 0.264,-5.064 -0.162,0.915 c -1.018,-0.692 -1.973,-1.119 -3.295,-1.119 -1.912,0 -2.869,1.363 -2.869,2.807 0,2.4 1.953,3.661 6.062,4.149 v 0.895 c 0,0.814 -0.651,1.261 -1.546,1.261 -1.18,0 -1.831,-0.63 -2.319,-1.302 l -1.627,1.241 c 0.651,1.119 2.4,1.973 3.946,1.933 C 1.302,5.655 2.521,4.617 2.521,1.444 v -4.983 c 0,-0.529 0.042,-1.058 0.205,-1.525 z"
         style="fill:#5e8089;fill-opacity:1;fill-rule:nonzero;stroke:none"
         transform="matrix(0.35277776,0,0,-0.35277776,64.955286,63.858998)"
         clip-path="url(#clipPath7)" />
      <path
         id="path8"
         d="M 0,0 H 2.522 L 4.271,-7.16 H 4.312 L 6.103,0 H 8.624 L 5.594,-10.577 H 2.949 Z"
         style="fill:#5e8089;fill-opacity:1;fill-rule:nonzero;stroke:none"
         transform="matrix(0.35277776,0,0,-0.35277776,66.167255,61.914417)"
         clip-path="url(#clipPath9)" />
      <path
         id="path10"
         d="M 0,0 C -0.04,1.464 -0.813,2.318 -2.034,2.318 -3.254,2.318 -4.027,1.464 -4.067,0 Z m -4.067,-1.709 c 0.04,-2.196 1.016,-3.051 2.196,-3.051 1.18,0 1.728,0.529 2.359,1.261 l 1.831,-1.139 c -0.976,-1.505 -2.4,-2.156 -4.434,-2.156 -2.746,0 -4.475,2.136 -4.475,5.492 0,3.356 1.729,5.492 4.597,5.492 2.766,0.02 4.312,-2.319 4.312,-4.861 v -1.038 z"
         style="fill:#5e8089;fill-opacity:1;fill-rule:nonzero;stroke:none"
         transform="matrix(0.35277776,0,0,-0.35277776,71.598796,63.32073)"
         clip-path="url(#clipPath11)" />
      <path
         id="path12"
         d="m 0,0 v 10.577 h 2.319 v -1.81 h 0.04 c 0.611,1.261 1.465,1.973 2.97,2.013 V 8.116 c -0.122,0.02 -0.264,0.02 -0.447,0.02 -1.261,0 -2.36,-1.444 -2.36,-1.709 L 2.522,0 Z"
         style="fill:#5e8089;fill-opacity:1;fill-rule:nonzero;stroke:none"
         transform="matrix(0.35277776,0,0,-0.35277776,72.91173,65.645642)"
         clip-path="url(#clipPath13)" />
      <path
         id="path14"
         d="m 0,0 c -0.509,0.549 -1.181,1.119 -1.974,1.119 -0.976,0 -1.423,-0.407 -1.423,-1.037 0,-1.811 5.289,-1.038 5.289,-4.902 0,-2.197 -1.668,-3.174 -3.886,-3.174 -1.688,0 -3.071,0.753 -4.007,2.136 l 1.689,1.261 c 0.589,-0.813 1.382,-1.525 2.46,-1.525 0.896,0 1.505,0.488 1.505,1.2 0,1.81 -5.288,1.159 -5.288,4.841 0,1.973 1.668,3.071 3.499,3.071 1.404,0 2.807,-0.529 3.722,-1.607 z"
         style="fill:#5e8089;fill-opacity:1;fill-rule:nonzero;stroke:none"
         transform="matrix(0.35277776,0,0,-0.35277776,76.994497,62.897502)"
         clip-path="url(#clipPath15)" />
      <path
         id="path16"
         d="M 0,0 -2.97,-2.969 H -5.044 L -3.132,0 Z m -1.403,-8.298 c -0.04,1.464 -0.814,2.318 -2.035,2.318 -1.219,0 -1.993,-0.854 -2.033,-2.318 z m -4.068,-1.709 c 0.04,-2.197 1.017,-3.051 2.197,-3.051 1.179,0 1.728,0.529 2.359,1.261 l 1.831,-1.139 c -0.977,-1.505 -2.4,-2.156 -4.435,-2.156 -2.746,0 -4.474,2.135 -4.474,5.492 0,3.356 1.728,5.492 4.597,5.492 2.766,0.02 4.312,-2.319 4.312,-4.862 v -1.037 z"
         style="fill:#5e8089;fill-opacity:1;fill-rule:nonzero;stroke:none"
         transform="matrix(0.35277776,0,0,-0.35277776,80.717962,60.39324)"
         clip-path="url(#clipPath17)" />
      <path
         id="path18"
         d="M 0,0 C -0.04,1.464 -0.813,2.318 -2.034,2.318 -3.254,2.318 -4.027,1.464 -4.067,0 Z m -4.067,-1.709 c 0.04,-2.196 1.016,-3.051 2.196,-3.051 1.18,0 1.728,0.529 2.359,1.261 l 1.831,-1.139 c -0.976,-1.505 -2.4,-2.156 -4.434,-2.156 -2.746,0 -4.475,2.136 -4.475,5.492 0,3.356 1.729,5.492 4.597,5.492 2.766,0.02 4.312,-2.319 4.312,-4.861 v -1.038 z"
         style="fill:#5e8089;fill-opacity:1;fill-rule:nonzero;stroke:none"
         transform="matrix(0.35277776,0,0,-0.35277776,83.63113,63.32073)"
         clip-path="url(#clipPath19)" />
      <path
         id="path20"
         d="m 0,0 c -0.509,0.549 -1.181,1.119 -1.974,1.119 -0.976,0 -1.423,-0.407 -1.423,-1.037 0,-1.811 5.289,-1.038 5.289,-4.902 0,-2.197 -1.668,-3.174 -3.886,-3.174 -1.688,0 -3.071,0.753 -4.007,2.136 l 1.689,1.261 c 0.589,-0.813 1.382,-1.525 2.46,-1.525 0.896,0 1.505,0.488 1.505,1.2 0,1.81 -5.288,1.159 -5.288,4.841 0,1.973 1.668,3.071 3.499,3.071 1.404,0 2.807,-0.529 3.722,-1.607 z"
         style="fill:#5e8089;fill-opacity:1;fill-rule:nonzero;stroke:none"
         transform="matrix(0.35277776,0,0,-0.35277776,86.81682,62.897502)"
         clip-path="url(#clipPath21)" />
      <path
         id="path22"
         d="m 0,0 c -2.451,-0.536 -2.781,-1.041 -2.781,-1.72 0,-0.587 0.401,-0.917 0.958,-0.917 0.577,0 1.287,0.34 1.823,0.886 z m 0.103,-3.028 -0.082,0.649 c -0.639,-0.505 -1.124,-0.752 -1.948,-0.752 -0.834,0 -1.472,0.515 -1.472,1.401 0,1.462 1.195,1.73 3.429,2.224 v 0.371 c 0,0.711 -0.308,1.071 -1.225,1.071 -0.639,0 -1.164,-0.35 -1.555,-0.968 l -0.412,0.247 c 0.463,0.866 1.122,1.216 1.987,1.216 1.216,0 1.793,-0.495 1.793,-1.68 V -2.05 c 0,-0.268 0.021,-0.618 0.082,-0.978 z"
         style="fill:#231f20;fill-opacity:1;fill-rule:nonzero;stroke:none"
         transform="matrix(0.35277776,0,0,-0.35277776,59.749379,68.45788)"
         clip-path="url(#clipPath23)" />
      <path
         id="path24"
         d="m 0,0 c -0.278,0.618 -0.68,1.112 -1.391,1.112 -1.008,0 -1.689,-0.628 -1.689,-2.286 0,-1.37 0.618,-2.286 1.689,-2.286 0.763,0 1.175,0.421 1.608,1.112 l 0.494,-0.237 c -0.453,-0.762 -1.082,-1.37 -2.102,-1.37 -1.504,0 -2.306,1.164 -2.306,2.781 0,1.843 0.926,2.781 2.306,2.781 1.01,0 1.638,-0.566 1.957,-1.453 z"
         style="fill:#231f20;fill-opacity:1;fill-rule:nonzero;stroke:none"
         transform="matrix(0.35277776,0,0,-0.35277776,61.70793,68.167262)"
         clip-path="url(#clipPath25)" />
      <path
         id="path26"
         d="m 0,0 c -0.278,0.618 -0.68,1.112 -1.391,1.112 -1.008,0 -1.689,-0.628 -1.689,-2.286 0,-1.37 0.618,-2.286 1.689,-2.286 0.763,0 1.175,0.421 1.608,1.112 l 0.494,-0.237 c -0.453,-0.762 -1.082,-1.37 -2.102,-1.37 -1.504,0 -2.306,1.164 -2.306,2.781 0,1.843 0.926,2.781 2.306,2.781 1.01,0 1.638,-0.566 1.957,-1.453 z"
         style="fill:#231f20;fill-opacity:1;fill-rule:nonzero;stroke:none"
         transform="matrix(0.35277776,0,0,-0.35277776,63.524877,68.167262)"
         clip-path="url(#clipPath27)" />
      <path
         id="path28"
         d="m 0,0 c 0,-1.452 0.484,-2.286 1.587,-2.286 1.101,0 1.586,0.834 1.586,2.286 0,1.453 -0.485,2.287 -1.586,2.287 C 0.484,2.287 0,1.453 0,0 m 3.791,0 c 0,-1.452 -0.536,-2.781 -2.204,-2.781 -1.669,0 -2.204,1.329 -2.204,2.781 0,1.453 0.535,2.781 2.204,2.781 1.668,0 2.204,-1.328 2.204,-2.781"
         style="fill:#231f20;fill-opacity:1;fill-rule:nonzero;stroke:none"
         transform="matrix(0.35277776,0,0,-0.35277776,64.255233,68.581565)"
         clip-path="url(#clipPath29)" />
      <path
         id="path30"
         d="M 0,0 V 5.356 H 0.618 V 4.542 c 0.546,0.577 0.947,0.917 1.781,0.917 0.598,0 1.144,-0.381 1.298,-0.979 0.485,0.567 0.999,0.979 1.772,0.979 0.937,0 1.411,-0.515 1.411,-1.453 L 6.88,0 H 6.262 V 4.068 C 6.262,4.666 5.933,4.964 5.335,4.964 4.861,4.964 4.078,4.46 3.749,3.945 V 0 H 3.131 V 4.068 C 3.131,4.666 2.802,4.964 2.204,4.964 1.73,4.964 0.947,4.46 0.618,3.945 V 0 Z"
         style="fill:#231f20;fill-opacity:1;fill-rule:nonzero;stroke:none"
         transform="matrix(0.35277776,0,0,-0.35277776,66.021522,69.526196)"
         clip-path="url(#clipPath31)" />
      <path
         id="path32"
         d="m 0,0 c 0.206,-0.36 0.906,-0.958 1.515,-0.958 1.112,0 1.658,0.886 1.658,2.369 0,1.112 -0.495,2.204 -1.567,2.204 C 0.927,3.615 0.525,3.193 0,2.637 Z M -0.618,4.007 H 0 V 3.183 h 0.021 c 0.422,0.618 0.926,0.927 1.617,0.927 1.39,0 2.152,-1.339 2.152,-2.812 0,-1.864 -0.865,-2.75 -2.111,-2.75 -0.721,0 -1.154,0.247 -1.679,0.803 v -2.595 h -0.618 z"
         style="fill:#231f20;fill-opacity:1;fill-rule:nonzero;stroke:none"
         transform="matrix(0.35277776,0,0,-0.35277776,69.302636,69.050263)"
         clip-path="url(#clipPath33)" />
      <path
         id="path34"
         d="m 0,0 c -2.451,-0.536 -2.781,-1.041 -2.781,-1.72 0,-0.587 0.401,-0.917 0.958,-0.917 0.577,0 1.287,0.34 1.823,0.886 z m 0.103,-3.028 -0.082,0.649 c -0.639,-0.505 -1.124,-0.752 -1.948,-0.752 -0.834,0 -1.472,0.515 -1.472,1.401 0,1.462 1.195,1.73 3.429,2.224 v 0.371 c 0,0.711 -0.308,1.071 -1.225,1.071 -0.639,0 -1.164,-0.35 -1.555,-0.968 l -0.412,0.247 c 0.463,0.866 1.122,1.216 1.987,1.216 1.216,0 1.793,-0.495 1.793,-1.68 V -2.05 c 0,-0.268 0.021,-0.618 0.082,-0.978 z"
         style="fill:#231f20;fill-opacity:1;fill-rule:nonzero;stroke:none"
         transform="matrix(0.35277776,0,0,-0.35277776,72.064217,68.45788)"
         clip-path="url(#clipPath35)" />
      <path
         id="path36"
         d="M 0,0 C 0.865,0 1.391,0.412 1.391,1.339 1.391,2.276 0.865,2.708 0,2.708 -0.865,2.708 -1.391,2.173 -1.391,1.339 -1.391,0.412 -0.752,0 0,0 m -1.647,-2.771 c 0,-0.525 0.514,-0.886 1.626,-0.886 1.339,0 1.917,0.361 1.917,0.917 0,0.443 -0.351,0.876 -1.958,0.876 -1.215,0 -1.585,-0.443 -1.585,-0.907 M 2.482,2.75 C 2.204,2.75 1.844,2.719 1.628,2.502 1.864,2.214 2.009,1.895 2.009,1.38 c 0,-1.318 -0.938,-1.875 -2.071,-1.875 -0.339,0 -0.597,0.073 -0.865,0.165 -0.34,-0.124 -0.494,-0.319 -0.494,-0.515 0,-0.309 0.206,-0.463 1.658,-0.463 1.607,0 2.277,-0.515 2.277,-1.391 0,-0.782 -0.598,-1.452 -2.442,-1.452 -1.843,0 -2.338,0.628 -2.338,1.267 0,0.464 0.186,0.855 0.938,1.133 v 0.021 c -0.392,0.082 -0.711,0.247 -0.711,0.7 0,0.453 0.412,0.824 0.804,0.906 -0.485,0.33 -0.773,0.845 -0.773,1.401 0,1.174 0.823,1.926 2.121,1.926 0.516,0 0.907,-0.144 1.246,-0.371 0.31,0.309 0.702,0.474 1.123,0.474 z"
         style="fill:#231f20;fill-opacity:1;fill-rule:nonzero;stroke:none"
         transform="matrix(0.35277776,0,0,-0.35277776,73.459489,68.730366)"
         clip-path="url(#clipPath37)" />
      <path
         id="path38"
         d="M 0,0 V 5.356 H 0.618 V 4.511 c 0.576,0.598 1.05,0.948 1.833,0.948 1.112,0 1.586,-0.639 1.586,-1.803 V 0 H 3.419 V 3.595 C 3.419,4.48 3.151,4.964 2.327,4.964 1.668,4.964 1.298,4.563 0.618,3.945 V 0 Z"
         style="fill:#231f20;fill-opacity:1;fill-rule:nonzero;stroke:none"
         transform="matrix(0.35277776,0,0,-0.35277776,74.702464,69.526196)"
         clip-path="url(#clipPath39)" />
      <path
         id="path40"
         d="M 0,0 C -0.124,1.102 -0.608,1.802 -1.545,1.812 -2.637,1.823 -3.101,0.71 -3.111,0 Z m -3.111,-0.495 c 0,-1.215 0.505,-2.265 1.72,-2.265 0.69,0 1.031,0.237 1.566,1.081 L 0.68,-1.947 c -0.577,-0.948 -1.103,-1.308 -2.122,-1.308 -1.401,0 -2.287,0.896 -2.287,2.781 0,1.658 0.845,2.781 2.205,2.781 1.452,0 2.141,-1.143 2.141,-2.802 z"
         style="fill:#231f20;fill-opacity:1;fill-rule:nonzero;stroke:none"
         transform="matrix(0.35277776,0,0,-0.35277776,77.87094,68.414277)"
         clip-path="url(#clipPath41)" />
      <path
         id="path42"
         d="M 0,0 V 5.356 H 0.618 V 4.542 c 0.546,0.577 0.947,0.917 1.781,0.917 0.598,0 1.144,-0.381 1.298,-0.979 0.485,0.567 0.999,0.979 1.772,0.979 0.937,0 1.411,-0.515 1.411,-1.453 L 6.88,0 H 6.262 V 4.068 C 6.262,4.666 5.933,4.964 5.335,4.964 4.861,4.964 4.078,4.46 3.749,3.945 V 0 H 3.131 V 4.068 C 3.131,4.666 2.802,4.964 2.204,4.964 1.73,4.964 0.947,4.46 0.618,3.945 V 0 Z"
         style="fill:#231f20;fill-opacity:1;fill-rule:nonzero;stroke:none"
         transform="matrix(0.35277776,0,0,-0.35277776,78.539629,69.526196)"
         clip-path="url(#clipPath43)" />
      <path
         id="path44"
         d="M 0,0 C -0.124,1.102 -0.608,1.802 -1.545,1.812 -2.637,1.823 -3.101,0.71 -3.111,0 Z m -3.111,-0.495 c 0,-1.215 0.505,-2.265 1.72,-2.265 0.69,0 1.031,0.237 1.566,1.081 L 0.68,-1.947 c -0.577,-0.948 -1.103,-1.308 -2.122,-1.308 -1.401,0 -2.287,0.896 -2.287,2.781 0,1.658 0.845,2.781 2.205,2.781 1.452,0 2.141,-1.143 2.141,-2.802 z"
         style="fill:#231f20;fill-opacity:1;fill-rule:nonzero;stroke:none"
         transform="matrix(0.35277776,0,0,-0.35277776,82.714754,68.414277)"
         clip-path="url(#clipPath45)" />
      <path
         id="path46"
         d="M 0,0 V 5.356 H 0.618 V 4.511 c 0.576,0.598 1.05,0.948 1.833,0.948 1.112,0 1.586,-0.639 1.586,-1.803 V 0 H 3.419 V 3.595 C 3.419,4.48 3.151,4.964 2.327,4.964 1.668,4.964 1.298,4.563 0.618,3.945 V 0 Z"
         style="fill:#231f20;fill-opacity:1;fill-rule:nonzero;stroke:none"
         transform="matrix(0.35277776,0,0,-0.35277776,83.383443,69.526196)"
         clip-path="url(#clipPath47)" />
      <path
         id="path48"
         d="M 0,0 V 1.751 H 0.618 V 0 H 1.792 V -0.495 H 0.618 v -3.923 c 0,-0.361 0.165,-0.546 0.546,-0.546 0.206,0 0.433,0.051 0.628,0.113 V -5.366 C 1.586,-5.397 1.37,-5.459 1.164,-5.459 0.288,-5.459 0,-5.17 0,-4.521 v 4.026 H -0.804 V 0 Z"
         style="fill:#231f20;fill-opacity:1;fill-rule:nonzero;stroke:none"
         transform="matrix(0.35277776,0,0,-0.35277776,85.425323,67.636719)"
         clip-path="url(#clipPath49)" />
      <path
         id="path50"
         d="m 0,0 c 0.505,-0.721 0.958,-0.906 1.658,-0.906 0.68,0 1.195,0.443 1.195,1.019 0,1.555 -3.152,0.68 -3.152,2.585 0,1.01 0.793,1.463 1.699,1.463 0.897,0 1.463,-0.35 1.844,-0.968 L 2.771,2.863 C 2.41,3.357 2.019,3.667 1.38,3.667 0.782,3.667 0.319,3.378 0.319,2.729 c 0,-1.308 3.152,-0.535 3.152,-2.616 0,-0.958 -0.886,-1.514 -1.854,-1.514 -0.824,0 -1.566,0.33 -2.07,1.082 z"
         style="fill:#231f20;fill-opacity:1;fill-rule:nonzero;stroke:none"
         transform="matrix(0.35277776,0,0,-0.35277776,86.366533,69.068327)"
         clip-path="url(#clipPath51)" />
      <path
         id="path52"
         d="M 0,0 C 0.68,0.371 1.195,1 1.195,1.607 1.195,2.07 0.937,2.431 0.36,2.431 -0.123,2.431 -0.453,2.122 -0.453,1.36 -0.453,0.875 -0.277,0.392 0,0 m 0.011,-4.099 c 0.875,0 1.411,0.463 1.658,0.721 -0.505,0.463 -1.483,1.854 -1.896,2.534 -0.824,-0.453 -1.348,-0.927 -1.348,-1.937 0,-0.875 0.803,-1.318 1.586,-1.318 m 3.481,2.925 C 3.316,-1.967 2.997,-2.719 2.555,-3.368 c 0.34,-0.35 0.761,-0.638 1.277,-0.669 v -0.618 c -0.659,0.03 -1.257,0.35 -1.73,0.813 -0.567,-0.514 -1.339,-0.813 -2.123,-0.813 -1.164,0 -2.234,0.628 -2.234,1.916 0,1.091 0.484,1.606 1.709,2.441 -0.34,0.504 -0.587,1.132 -0.587,1.73 0,0.988 0.587,1.555 1.525,1.555 0.844,0 1.483,-0.525 1.483,-1.421 0,-1.009 -0.772,-1.576 -1.524,-2.132 0.577,-0.814 1.091,-1.689 1.73,-2.369 0.37,0.566 0.639,1.215 0.773,1.885 z"
         style="fill:#5e8089;fill-opacity:1;fill-rule:nonzero;stroke:none"
         transform="matrix(0.35277776,0,0,-0.35277776,73.131863,71.800837)"
         clip-path="url(#clipPath53)" />
      <path
         id="path54"
         d="M 0,0 V 7.437 H 0.618 V 4.511 c 0.576,0.598 1.05,0.948 1.833,0.948 1.112,0 1.586,-0.639 1.586,-1.803 V 0 H 3.419 V 3.595 C 3.419,4.48 3.151,4.964 2.327,4.964 1.668,4.964 1.298,4.563 0.618,3.945 V 0 Z"
         style="fill:#231f20;fill-opacity:1;fill-rule:nonzero;stroke:none"
         transform="matrix(0.35277776,0,0,-0.35277776,75.911716,73.406752)"
         clip-path="url(#clipPath55)" />
      <path
         id="path56"
         d="m 0,0 c -2.451,-0.536 -2.781,-1.041 -2.781,-1.72 0,-0.587 0.401,-0.917 0.958,-0.917 0.577,0 1.287,0.34 1.823,0.886 z m 0.103,-3.028 -0.082,0.649 c -0.639,-0.505 -1.124,-0.752 -1.948,-0.752 -0.834,0 -1.472,0.515 -1.472,1.401 0,1.462 1.195,1.73 3.429,2.224 v 0.371 c 0,0.711 -0.308,1.071 -1.225,1.071 -0.639,0 -1.164,-0.35 -1.555,-0.968 l -0.412,0.247 c 0.463,0.866 1.122,1.216 1.987,1.216 1.216,0 1.793,-0.495 1.793,-1.68 V -2.05 c 0,-0.268 0.021,-0.618 0.082,-0.978 z"
         style="fill:#231f20;fill-opacity:1;fill-rule:nonzero;stroke:none"
         transform="matrix(0.35277776,0,0,-0.35277776,78.927543,72.338436)"
         clip-path="url(#clipPath57)" />
      <path
         id="path58"
         d="m 0,0 c 0.401,-0.556 0.845,-0.978 1.606,-0.978 1.072,0 1.567,0.968 1.567,2.204 0,1.39 -0.546,2.369 -1.658,2.369 C 0.906,3.595 0.206,2.998 0,2.637 Z M -0.618,6.067 H 0 V 3.286 c 0.525,0.556 0.958,0.803 1.679,0.803 1.246,0 2.111,-1.174 2.111,-2.75 0,-1.823 -0.762,-2.812 -2.152,-2.812 -0.732,0 -1.328,0.247 -1.72,0.804 L -0.186,-1.37 h -0.432 z"
         style="fill:#231f20;fill-opacity:1;fill-rule:nonzero;stroke:none"
         transform="matrix(0.35277776,0,0,-0.35277776,80.003092,72.923589)"
         clip-path="url(#clipPath59)" />
      <path
         id="path60"
         d="m 231.358,624.17 h -0.618 v 5.356 h 0.618 z m -0.618,7.436 h 0.618 v -0.907 h -0.618 z"
         style="fill:#231f20;fill-opacity:1;fill-rule:nonzero;stroke:none"
         transform="matrix(0.35277776,0,0,-0.35277776,0.36541471,293.59999)"
         clip-path="url(#clipPath61)" />
      <path
         id="path62"
         d="M 0,0 V 1.751 H 0.618 V 0 H 1.792 V -0.495 H 0.618 v -3.923 c 0,-0.361 0.165,-0.546 0.546,-0.546 0.206,0 0.433,0.051 0.628,0.113 V -5.366 C 1.586,-5.397 1.37,-5.459 1.164,-5.459 0.288,-5.459 0,-5.17 0,-4.521 v 4.026 H -0.804 V 0 Z"
         style="fill:#231f20;fill-opacity:1;fill-rule:nonzero;stroke:none"
         transform="matrix(0.35277776,0,0,-0.35277776,82.597245,71.517275)"
         clip-path="url(#clipPath63)" />
      <path
         id="path64"
         d="m 0,0 c -2.451,-0.536 -2.781,-1.041 -2.781,-1.72 0,-0.587 0.401,-0.917 0.958,-0.917 0.577,0 1.287,0.34 1.823,0.886 z m 0.103,-3.028 -0.082,0.649 c -0.639,-0.505 -1.124,-0.752 -1.948,-0.752 -0.834,0 -1.472,0.515 -1.472,1.401 0,1.462 1.195,1.73 3.429,2.224 v 0.371 c 0,0.711 -0.308,1.071 -1.225,1.071 -0.639,0 -1.164,-0.35 -1.555,-0.968 l -0.412,0.247 c 0.463,0.866 1.122,1.216 1.987,1.216 1.216,0 1.792,-0.495 1.792,-1.68 V -2.05 c 0,-0.268 0.022,-0.618 0.083,-0.978 z"
         style="fill:#231f20;fill-opacity:1;fill-rule:nonzero;stroke:none"
         transform="matrix(0.35277776,0,0,-0.35277776,84.581302,72.338436)"
         clip-path="url(#clipPath65)" />
      <path
         id="path66"
         d="M 0,0 V 1.751 H 0.618 V 0 H 1.792 V -0.495 H 0.618 v -3.923 c 0,-0.361 0.165,-0.546 0.546,-0.546 0.206,0 0.433,0.051 0.628,0.113 V -5.366 C 1.586,-5.397 1.37,-5.459 1.164,-5.459 0.288,-5.459 0,-5.17 0,-4.521 v 4.026 H -0.804 V 0 Z"
         style="fill:#231f20;fill-opacity:1;fill-rule:nonzero;stroke:none"
         transform="matrix(0.35277776,0,0,-0.35277776,85.424299,71.517275)"
         clip-path="url(#clipPath67)" />
      <path
         id="path68"
         d="m 0,0 c 0.505,-0.721 0.958,-0.906 1.658,-0.906 0.68,0 1.195,0.443 1.195,1.019 0,1.555 -3.152,0.68 -3.152,2.585 0,1.01 0.793,1.463 1.699,1.463 0.897,0 1.463,-0.35 1.844,-0.968 L 2.771,2.863 C 2.41,3.357 2.019,3.667 1.38,3.667 0.782,3.667 0.319,3.378 0.319,2.729 c 0,-1.308 3.152,-0.535 3.152,-2.616 0,-0.958 -0.886,-1.514 -1.854,-1.514 -0.824,0 -1.566,0.33 -2.07,1.082 z"
         style="fill:#231f20;fill-opacity:1;fill-rule:nonzero;stroke:none"
         transform="matrix(0.35277776,0,0,-0.35277776,86.365509,72.948883)"
         clip-path="url(#clipPath69)" />
      <path
         id="path70"
         d="m 0,0 c -1.299,0 -2.16,0.031 -2.795,0.081 0.023,0.08 0.063,0.189 0.063,0.379 0,0.42 -2.107,0.151 -2.305,0.672 -0.198,0.519 -0.121,0.712 0.09,1.237 0.214,0.526 3.774,8.217 3.832,8.868 0.061,0.65 1.343,0.617 1.823,1.096 0.479,0.48 2.887,5.988 2.887,5.988 0,0 -0.056,-0.962 0.891,-1.91 C 5.431,15.465 6.357,6.946 7.462,4.428 8.564,1.912 8.701,1.791 8.55,1.639 8.396,1.485 8.168,0.812 8.413,0.439 8.541,0.245 8.63,0.146 8.688,0.046 6.022,0.199 4.099,0 0,0 Z m -39.317,0.481 c -0.882,0.059 -1.467,0.089 -1.897,0.107 -0.053,0.218 -0.131,0.442 -0.254,0.618 -0.356,0.507 -2.162,0.493 -2.59,0.814 -0.426,0.318 0,0.778 0,1.788 0,1.015 0.28,0.894 0.461,1.381 0.182,0.485 1.279,2.718 1.874,3.379 0.596,0.658 1.181,2.955 1.929,3.703 0.749,0.749 0.367,-0.091 0.367,-0.091 0,0 2.652,-6.784 3.007,-7.139 0.354,-0.355 0.157,-1.574 0.281,-2.321 0.124,-0.745 0.305,-0.969 0.305,-0.969 l 0.063,-1.68 c -0.975,0.132 -1.975,0.305 -3.546,0.41 z M -60.83,0.208 c 0.344,0.375 0.513,1.042 -0.06,1.379 -0.76,0.443 -2.144,0.702 -2.378,1.851 -0.233,1.148 -0.388,3.934 -0.243,4.873 0.184,1.199 1.039,2.067 1.518,3.153 0.478,1.087 0.7,1.653 0.7,1.918 0,0.264 0.546,-0.402 0.642,-1.099 0.096,-0.695 -0.122,-0.262 0.291,-1.732 0.414,-1.471 2.793,-7.581 3.095,-8.612 0.184,-0.626 0.319,-1.41 0.486,-2.023 -1.258,0.059 -2.621,0.172 -4.051,0.292 z m -32.211,10.681 c -0.03,0.302 0.63,0.255 0.654,0.069 0.026,-0.181 0.625,-0.361 0.677,-0.542 0.026,-0.098 0.636,-0.354 0.652,-0.374 0.112,-0.128 0.781,0.454 0.874,0.462 -0.194,0.349 -0.484,0.581 -0.533,0.994 -0.022,0.187 0.025,0.333 0.066,0.514 0.018,0.077 0.893,-0.498 1.447,-0.498 0.292,0 0.435,0.112 0.353,0.38 -0.052,0.168 0.294,0.362 0.455,0.396 0.043,-0.614 -0.108,-1.255 -0.353,-1.813 0.108,0.246 0.215,0.489 -0.001,-0.003 -0.266,-0.601 -0.284,-1.329 -0.307,-1.975 -0.025,-0.695 -0.009,-1.39 0.03,-2.083 0.02,-0.355 0.033,-0.693 -0.068,-1.042 -0.095,-0.33 -0.269,-0.619 -0.399,-0.934 -0.133,-0.32 -0.046,-0.678 -0.344,-0.934 -0.208,-0.177 -0.535,-0.126 -0.771,-0.039 0.14,0.106 1.024,0.742 0.77,0.9 -0.203,0.126 -0.302,0.435 -0.419,0.65 -0.426,0.772 -0.749,1.761 -1.466,2.311 -0.443,0.341 -1.02,0.643 -1.28,1.16 -0.179,0.355 -0.254,0.783 -0.202,1.178 0.051,0.389 0.204,0.829 0.165,1.223 z m -22.634,-9.331 c -0.171,-0.406 -1.076,-1.106 -1.085,-1.649 -0.704,-0.008 -1.402,-0.014 -2.092,-0.017 0.113,0.505 -0.064,1.389 -0.098,1.628 -0.077,0.557 -0.747,1.24 -0.529,1.774 0.376,0.914 0.932,2.424 1.189,3.395 0.189,0.716 0.205,1.655 0.511,2.323 0.115,0.25 0.49,-0.551 0.522,-0.612 0.237,-0.429 0.495,-0.85 0.734,-1.28 0.462,-0.839 0.915,-1.694 1.276,-2.582 0.429,-1.057 -0.013,-1.994 -0.428,-2.98 z m -5.328,5.164 c -0.14,-1.321 -0.405,-3.346 -1.553,-4.139 -0.435,-0.302 -0.718,-0.663 -1.166,-0.95 -0.283,-0.182 -0.613,-0.196 -0.904,-0.322 v 0.002 c 0,1.318 0.068,2.04 0.068,2.04 0,0 0.929,1.023 1.287,1.381 0.36,0.357 1.815,1.644 0.854,2.342 -0.959,0.694 -0.679,1.13 -0.531,1.278 0.147,0.147 -0.622,0.546 -1.519,1.714 -0.893,1.17 -0.532,8.29 -0.532,8.29 0,0 1.699,4.239 1.785,5.934 0.087,1.694 -0.147,1.588 0.128,2.992 0.168,0.857 0.364,1.572 0.518,2.18 -0.024,-0.497 0.001,-0.998 0.035,-1.492 0.078,-1.137 0.087,-2.27 0.228,-3.403 0.166,-1.312 0.409,-2.612 0.606,-3.92 0.112,-0.742 0.234,-1.49 0.28,-2.241 0.015,-0.25 -0.044,-0.674 0.106,-0.899 0.044,-0.07 0.224,-0.003 0.293,-0.027 0.294,-0.1 -0.099,-0.832 -0.158,-0.972 -0.183,-0.442 -0.227,-0.739 -0.028,-1.18 0.32,-0.714 0.571,-1.474 0.589,-2.264 0.041,-2.108 -0.165,-4.251 -0.386,-6.344 z m -23.336,-4.563 c -0.482,-0.544 -1.185,-0.853 -1.779,-1.259 -0.082,-0.056 -0.173,-0.121 -0.26,-0.19 -0.59,0.009 -1.187,0.017 -1.79,0.023 0.043,0.115 0.07,0.237 0.08,0.358 0.026,0.316 0.21,0.578 0.385,0.832 0.259,0.373 0.569,0.743 0.73,1.17 0.125,0.33 0.165,0.685 0.188,1.033 0.057,0.857 -0.007,1.802 0.349,2.604 0.122,0.272 0.304,0.506 0.477,0.747 0.186,0.259 0.304,0.528 0.421,0.823 0.3,0.758 0.709,-0.675 0.797,-0.904 0.167,-0.433 0.389,-0.845 0.534,-1.285 0.063,-0.193 0.102,-0.391 0.028,-0.588 -0.097,-0.254 -0.263,-0.473 -0.313,-0.747 -0.064,-0.353 0.046,-0.706 0.166,-1.035 0.121,-0.331 0.421,-0.793 0.36,-1.159 -0.03,-0.185 -0.26,-0.294 -0.373,-0.423 z m 15.09,11.776 c -0.445,0 -0.549,0.458 -0.643,0.458 -0.093,0 -0.829,0.735 -0.829,0.735 0,0 -0.253,0.235 -0.42,0.235 -0.166,0 -0.316,-0.279 -0.316,0.501 0,0.782 -0.178,0.907 0.185,1.572 0.361,0.664 0.726,1.964 0.932,2.23 0.208,0.269 1.055,0.925 1.182,0.799 l 0.368,-6.901 c 0,0 -0.016,0.371 -0.459,0.371 z M 34.998,0.361 c 0,0 -14.189,-0.121 -16.595,0 -1.147,0.057 -2.563,-0.076 -4.057,-0.206 0.746,0.259 1.409,0.577 1.74,0.744 0.608,0.308 0.9,0.454 0.9,0.454 0,0 0.192,0.155 -0.114,0.655 -0.301,0.501 0.416,0.821 -0.762,0.501 -1.175,-0.321 -1.662,0.12 -1.662,0.12 0,0 -2.297,3.421 -2.744,5.423 -0.447,2.001 -1.451,6.704 -2.061,8.413 -0.61,1.706 -2.769,6.639 -2.84,8.16 -0.069,1.519 -0.358,2.29 -0.358,2.881 0,0.592 0.351,-0.054 0.45,1.426 0.101,1.477 -0.047,6.629 0.021,8.381 0.065,1.752 0.35,3.758 0.113,4.676 -0.233,0.919 -0.891,2.26 -0.891,2.26 l 0.345,0.177 0.541,0.135 -0.43,1.52 c 0,0 0.243,0.177 1.128,0 0.901,-0.181 1.149,0.518 1.014,2.051 -0.031,0.352 0.019,0.308 0.226,0.384 0.071,0.026 0.499,0.194 0.496,0.271 -0.022,0.45 -0.745,1.096 -0.722,1.307 0.032,0.271 0.258,0.522 0.203,0.767 -0.054,0.242 0.547,0.277 -0.198,1.157 -0.145,0.172 -0.624,0.563 -0.45,0.838 0.172,0.275 0.201,0.102 -0.564,0.36 -0.769,0.257 -1.126,0.049 -0.851,0.308 0.034,0.033 0.065,0.057 0.093,0.074 C 6.855,53.57 6.636,53.54 6.258,53.55 5.244,53.576 3.675,53.268 3.338,52.731 2.998,52.194 2.302,51.133 2.328,50.265 2.357,49.398 2.236,48.397 2.46,48.255 2.684,48.115 2.973,47.813 2.973,47.813 L 3.087,47.127 2.244,47.222 2.492,46.45 c 0,0 -1.907,-1.321 -2.944,-3.903 -1.037,-2.584 -2.196,-5.424 -2.196,-5.424 0,0 -0.47,0.902 -1.487,-0.152 -1.014,-1.054 -2.891,-3.31 -2.891,-3.31 0,0 -0.171,-0.814 0.002,-1.553 0.17,-0.74 -0.227,-1.577 0.379,-2.539 0.612,-0.962 2.978,-3.6 3.946,-3.851 0.968,-0.251 1.314,0.126 1.314,0.126 0,0 -0.17,-4.869 -0.17,-5.255 0,-0.388 0.009,-2.313 -0.314,-2.925 -0.32,-0.613 -1.086,-2.489 -1.872,-3.144 -0.786,-0.655 -1.782,-1.201 -1.782,-2.226 0,-1.024 -5.695,-8.366 -5.617,-8.456 0.083,-0.09 -0.345,-1.193 -0.345,-1.193 0,0 -0.547,-0.887 -0.306,-1.128 0.189,-0.19 0.982,-0.565 1.478,-0.805 -3.526,0.006 -8.264,-0.069 -11.568,0.01 -5.051,0.12 -4.81,-0.361 -9.024,-0.722 -0.444,-0.038 -0.84,-0.063 -1.212,-0.082 0.345,0.082 0.75,0.164 0.75,0.164 1.929,0.811 -0.129,2.358 -0.129,2.358 0,0 -0.988,0.078 -0.719,0.721 0.269,0.645 -1.69,3.731 -2.198,5.861 -0.508,2.133 -0.959,1.884 -1.219,3.249 -0.261,1.364 -0.142,1.969 -0.539,5.376 -0.398,3.408 -0.475,2.544 0.104,3.963 0.578,1.421 0.841,5.078 0.772,7.162 -0.069,2.087 -0.175,1.893 -0.175,2.426 0,0.532 0.187,0 0.448,0.262 0.26,0.261 -0.025,5.393 0.406,5.825 0.239,0.237 0.255,0.046 1.015,-0.714 0.761,-0.76 4.569,-4.199 5.386,-4.571 0.819,-0.37 2.236,-0.93 3.012,-0.93 0.776,0 0.668,-0.272 0.708,-0.473 0.04,-0.201 -0.877,-0.775 -0.071,-0.965 0.804,-0.193 0.913,1.338 0.913,2.336 0,0.996 -1.22,1.016 -2.334,1.928 -1.113,0.911 -2.334,2.029 -2.741,2.639 -0.407,0.607 -2.207,2.481 -3.282,3.687 -1.074,1.204 -1.387,2.388 -1.997,4.028 -0.609,1.641 -1.925,2.232 -2.335,2.232 -0.411,0 -0.203,0.406 0.044,0.448 0.248,0.043 0.972,0.705 1.185,1.647 0.213,0.941 0.295,0.546 0.497,0.748 0.203,0.203 -0.052,0.573 -0.04,1.709 0.013,1.136 0.041,0.685 0.041,0.892 0,0.211 -0.09,1.585 -10e-4,2.071 0.088,0.483 -0.428,0.595 -0.428,0.595 0,0 -0.753,0.452 -2.517,0.452 -3.517,0 -3.044,-1.557 -3.349,-2.989 -0.305,-1.43 0.202,-1.612 0.202,-1.612 0,0 0.103,-1.086 0.103,-1.93 0,-0.842 -0.508,-0.507 -2.79,-1.754 -2.282,-1.247 -2.701,-3.723 -3.39,-5.621 -0.691,-1.895 -1.971,-4.371 -1.333,-5.11 0.639,-0.741 1.117,-1.118 1.566,-1.631 0.451,-0.513 0.159,-1.111 0.363,-1.416 0.203,-0.304 1.42,-0.304 1.354,-0.57 -0.066,-0.269 -0.339,-2.623 -0.339,-5.014 0,-2.388 2.002,-5.647 2.448,-6.588 0.447,-0.946 0.192,-0.404 0.192,-1.126 0,-0.723 -0.753,-1.434 -1.348,-2.198 -0.595,-0.764 -2.524,-7.416 -3.689,-9.717 -1.165,-2.299 -0.851,-1.892 -1.234,-2.787 -0.383,-0.897 -0.573,-1.484 -0.573,-1.484 0,0 -0.802,-1.185 -1.114,-1.778 -1.407,0.357 -1.868,0.451 -2.397,1.922 -0.599,1.66 -2.997,6.217 -3.34,7.623 -0.341,1.403 -0.417,1.874 -0.417,3.492 0,1.619 -1.201,3.935 -1.446,4.969 -0.244,1.037 0.495,3.163 0.495,3.163 0,0 7.91,-0.877 7.91,-0.117 0,0 -1.891,2.258 -1.941,5.729 -0.054,3.467 -1.849,7.171 -1.849,8.067 0,0.894 -0.12,1.922 -0.12,3.326 0,1.402 0.573,2.131 -0.709,3.002 -1.283,0.874 -1.866,0.803 -2.487,1.425 -0.621,0.623 -0.621,1.578 -0.621,1.578 0,0 1.502,0.17 1.348,1.997 -0.157,1.827 -0.157,2.354 -0.157,2.354 h 1.69 c 0,0 0.082,1.119 -0.877,1.193 -0.959,0.074 -0.813,0.074 -0.813,0.074 0,0 -0.855,1.784 -1.902,1.901 -1.045,0.117 -3.063,-0.104 -3.591,-1.16 -0.528,-1.057 -0.489,-2.19 -0.614,-2.522 -0.125,-0.33 -0.97,-1.283 -0.865,-2.234 0.106,-0.948 0.08,-0.843 -0.277,-1.32 -0.357,-0.474 -1.488,-1.105 -2.048,-1.664 -0.561,-0.559 -1.656,0.052 -2.095,-1.413 -0.44,-1.467 -1.686,-4.32 -2.034,-4.87 -0.349,-0.548 -1.927,-2.843 -0.306,-4.095 1.621,-1.252 1.943,-1.252 1.943,-1.252 0,0 0.613,-2.96 0.613,-4.966 0,-2.003 0.282,-4.596 0.282,-4.596 0,0 -0.355,-0.437 0.436,-0.437 0.79,0 0.951,-0.105 0.951,-0.105 0,0 1.514,-2.898 1.655,-3.138 0.14,-0.243 -0.526,-3.338 -1.022,-4.467 -0.496,-1.13 -0.001,-0.022 -0.824,-2.077 -0.821,-2.052 -2.362,-8.914 -2.362,-9.509 0,-0.58 -0.457,-2.529 -0.026,-3.067 -4.24,-0.085 -9.302,-0.507 -12.923,-0.537 0.001,0.038 0.014,0.069 0.003,0.115 -0.094,0.383 0.481,0.613 0.729,0.826 0.048,0.04 -0.07,0.343 -0.085,0.399 -0.169,0.656 -0.334,1.315 -0.531,1.963 -0.261,0.859 -0.273,1.745 -0.424,2.626 -0.15,0.873 -0.408,1.729 -0.647,2.581 -0.107,0.385 -0.204,0.774 -0.315,1.159 -0.099,0.341 -0.331,0.786 -0.258,1.153 0.19,0.945 -0.152,1.826 -0.304,2.746 -0.13,0.78 -0.451,1.755 -0.032,2.484 0.201,0.353 0.477,0.7 0.856,0.861 0.335,0.143 1.036,0.435 1.198,0.778 0.09,0.189 -0.062,1.612 0.12,1.589 0.118,-0.016 0.301,-0.292 0.394,-0.372 0.147,-0.127 0.31,-0.254 0.425,-0.413 0.21,-0.288 0.131,0.106 0.331,0.096 0.106,-0.004 0.141,-0.238 0.254,-0.209 0.223,0.056 0.472,0.83 0.544,1.006 0.166,0.405 0.189,0.826 0.223,1.256 0.046,0.574 0.039,1.113 -0.088,1.677 -0.064,0.29 -0.106,0.639 -0.403,0.779 -0.422,0.201 -0.918,0.193 -1.354,0.357 -0.292,0.11 -0.328,0.296 -0.349,0.578 -0.054,0.704 -0.602,1.35 -1.044,1.867 0.064,-0.019 0.539,-0.184 0.558,-0.151 0.144,0.252 0.376,0.613 0.38,0.904 0.008,0.395 -0.622,0.265 -0.837,0.41 -0.313,0.209 -0.151,0.726 -0.012,0.988 0.496,0.926 1.08,-0.244 1.33,-0.682 0.332,-0.583 0.613,-1.182 0.882,-1.797 0.291,-0.664 0.572,-1.332 0.862,-1.997 0.379,-0.868 0.32,-1.727 0.407,-2.643 0.039,-0.415 0.125,-0.821 0.181,-1.233 0.014,-0.103 0.223,-0.784 0.4,-0.639 0.237,0.193 -0.018,0.794 -0.048,1.013 -0.018,0.151 0.16,-0.135 0.171,-0.156 0.09,-0.163 0.142,-0.33 0.156,-0.516 0.022,-0.276 -0.05,-0.554 -0.07,-0.829 -0.013,-0.169 0.037,-0.406 0.24,-0.202 0.242,0.243 0.504,0.64 0.671,0.934 0.277,0.49 0.397,1.047 0.242,1.596 -0.108,0.392 -0.422,0.63 -0.535,1.007 -0.215,0.718 -0.209,1.493 -0.395,2.225 -0.198,0.772 -0.426,1.539 -0.687,2.293 -0.224,0.651 -0.525,1.272 -0.758,1.922 -0.128,0.354 -0.248,0.711 -0.364,1.07 -0.071,0.218 -0.055,0.252 0.057,0.472 0.21,0.416 0.403,0.648 0.342,1.14 -0.026,0.193 -0.257,0.334 -0.385,0.47 -0.26,0.276 -0.535,0.567 -0.66,0.931 -0.134,0.387 -0.201,0.788 -0.361,1.167 -0.343,0.821 -1.036,1.295 -1.556,1.974 -0.215,0.28 -0.38,0.602 -0.577,0.895 -0.198,0.291 -0.461,0.523 -0.658,0.807 -0.248,0.358 -0.296,0.849 -0.387,1.264 -0.095,0.431 -0.153,0.864 -0.218,1.299 -0.134,0.893 -0.355,2.141 -1.186,2.661 -0.638,0.401 -1.338,0.265 -2.009,0.05 -0.809,-0.26 -1.562,-0.373 -2,-1.162 -0.442,-0.799 -0.478,-1.778 -0.822,-2.626 -0.013,-0.035 -0.158,-0.408 -0.233,-0.268 -0.109,0.207 -0.208,0.418 -0.294,0.635 -0.085,0.214 -0.109,0.444 -0.193,0.656 -0.024,0.06 -0.316,0.394 -0.307,0.401 0.056,0.045 0.459,-0.162 0.459,-0.12 0,0.034 -0.049,0.075 -0.07,0.097 -0.296,0.296 -0.706,0.474 -1.009,0.766 -0.283,0.274 -0.303,0.619 -0.375,0.98 -0.167,0.834 -0.672,1.515 -0.679,2.391 -0.005,0.489 -0.008,0.953 -0.167,1.422 -0.144,0.423 -0.345,0.829 -0.567,1.215 -0.37,0.64 -1.132,1.073 -1.868,1.143 -0.894,0.084 -1.746,-0.226 -2.353,-0.867 -0.417,-0.441 -0.574,-0.871 -0.743,-1.455 -0.046,-0.157 -0.022,-0.303 -0.184,-0.316 -0.342,-0.027 -0.378,-0.301 -0.312,-0.579 0.079,-0.335 0.217,-0.651 0.317,-0.98 0.081,-0.268 0.036,-0.56 -0.014,-0.83 -0.085,-0.472 -0.276,-0.741 -0.508,-1.136 -0.231,-0.392 -0.013,-0.81 -0.187,-1.221 -0.098,-0.234 -0.232,-0.421 -0.086,-0.668 0.046,-0.08 0.016,-0.067 -0.044,-0.143 -0.246,-0.311 -0.444,-0.726 -0.329,-1.122 0.26,-0.902 1.151,-1.484 0.896,-2.499 -0.125,-0.503 -0.361,-1.011 -0.27,-1.54 0.071,-0.41 0.313,-0.753 0.528,-1.098 0.491,-0.791 0.706,-1.781 0.752,-2.703 0.044,-0.893 -0.231,-1.825 -0.444,-2.683 -0.194,-0.786 -0.476,-1.579 -0.536,-2.392 -0.045,-0.618 -0.239,-1.25 -0.432,-1.836 -0.285,-0.874 -0.623,-1.73 -0.946,-2.59 -0.403,-1.074 -0.694,-2.123 -0.865,-3.257 -0.11,-0.732 -0.402,-1.383 -0.541,-2.107 -0.22,-1.145 -0.323,-2.311 -0.56,-3.454 -0.049,-0.238 -0.093,-0.533 -0.247,-0.732 -0.106,-0.138 -0.392,-0.175 -0.285,-0.399 0.206,-0.43 0.839,-0.803 1.298,-0.861 0.189,-0.025 0.426,0.051 0.603,-0.031 0.102,-0.047 0.14,-0.178 0.2,-0.264 0.34,-0.485 0.889,0.198 1.327,0.213 0.208,0.007 0.383,0.02 0.585,0.086 0.094,0.031 0.117,0.065 0.194,0.011 0.62,-0.431 1.09,-1.169 1.579,-1.738 0.1,-0.116 0.219,-0.198 0.227,-0.351 0.013,-0.291 0.022,-0.582 0.028,-0.873 0.021,-1.166 0.016,-2.349 -0.121,-3.507 -0.088,-0.737 -0.278,-1.472 -0.741,-2.067 -0.348,-0.448 -0.621,-0.921 -1.196,-1.094 -0.398,-0.121 -0.645,-0.089 -0.723,-0.556 -2.476,-0.099 -8.366,-0.344 -14.459,-0.467 0.081,0.127 0.127,0.279 0.185,0.464 0.122,0.379 0.486,0.634 0.788,0.861 0.662,0.494 1.185,0.903 0.874,1.772 -0.288,0.799 -0.596,1.697 -1.073,2.404 -1.13,1.67 -1.611,3.401 -2.183,5.312 -0.198,0.657 -0.673,1.192 -1.025,1.77 -0.338,0.557 -0.532,1.102 -0.572,1.804 -0.059,0.997 -0.531,1.938 -0.579,2.932 -0.024,0.509 0.627,1.113 0.906,1.53 0.574,0.86 0.98,1.815 1.493,2.712 0.117,0.206 0.876,1.862 1.112,1.884 -0.105,-0.01 0.155,-1.338 0.18,-1.443 0.03,-0.126 0.4,-1.023 0.47,-0.43 0.017,0.163 -0.15,1.465 0.127,1.204 0.281,-0.266 0.183,-0.916 0.032,-1.216 -0.183,-0.362 -0.559,-0.813 0.096,-0.697 0.394,0.07 0.7,0.224 0.967,0.539 0.37,0.437 0.832,0.886 0.775,1.495 -0.043,0.464 -0.214,0.912 -0.381,1.344 0.048,-0.124 0.089,-0.228 -0.008,0.021 -0.484,1.245 -0.252,2.903 -0.18,4.202 0.1,1.834 -0.128,3.702 -0.511,5.492 -0.206,0.964 -0.094,1.939 -0.136,2.913 -0.019,0.436 -0.058,0.867 -0.056,1.303 0,0.257 0.267,0.094 0.265,0.208 -0.024,0.762 -0.177,1.538 -0.227,2.305 -0.046,0.716 -0.065,1.489 -0.247,2.184 -0.199,0.758 -0.707,1.455 -0.729,2.247 -0.025,0.989 0.035,1.943 -0.269,2.904 -0.21,0.674 -0.513,1.284 -0.691,1.974 -0.223,0.863 -0.396,1.297 -1.189,1.773 -0.272,0.162 -0.558,0.33 -0.858,0.437 -0.413,0.147 -0.68,0.035 -1.082,0.042 -0.372,0.007 -0.713,0.292 -1.025,-0.06 -0.282,-0.318 -0.904,-0.052 -1.242,-0.215 -0.36,-0.171 -0.153,-0.548 -0.237,-0.824 -0.132,-0.424 -0.559,-0.65 -0.687,-1.088 -0.192,-0.65 0.048,-0.733 -0.668,-0.792 0.037,-0.458 0.084,-0.662 -0.134,-1.058 -0.462,-0.845 0.15,-0.682 0.391,-1.361 0.189,-0.535 -0.011,-1.397 0.61,-1.663 0.184,-0.078 0.11,-0.601 0.218,-0.781 0.092,-0.156 0.216,-0.297 0.354,-0.416 -1.147,0.035 -1.935,-0.385 -2.59,-1.185 -0.909,1.519 -2.509,3.148 -3.763,3.733 -1.58,0.734 -1.658,2.116 -1.658,2.116 l -0.183,1.931 0.181,0.068 c 0,0 0.983,3.146 -2.474,3.241 -3.457,0.095 -3.457,-1.827 -3.457,-1.827 0,0 -0.229,-1.574 0.139,-1.943 0.369,-0.368 -0.189,-0.51 0.184,-1.04 0.375,-0.531 1.196,-0.852 1.196,-1.259 l -1.104,-1.103 c 0,0 -2.575,-1.382 -2.575,-2.668 0,-1.286 -0.093,-4.888 0,-5.763 0.092,-0.876 0.552,-3.621 0.552,-3.621 v -3.127 c 0,0 -0.235,-1.308 -0.185,-2.639 0.051,-1.332 0.552,-1.793 0.185,-4.591 -0.369,-2.796 -2.755,-7.468 0.156,-10.381 2.913,-2.912 5.388,-4.439 5.872,-4.813 0.484,-0.37 0.484,-0.39 0.484,-1.15 0,-0.761 -0.867,-3.685 -0.706,-4.414 0.16,-0.725 0.418,-1.207 0.055,-1.571 -0.364,-0.36 -2.135,0.092 -2.135,-0.723 0,-0.446 -10e-4,-0.765 0.235,-0.991 -2.568,0.114 -5.256,0.225 -8.126,0.316 0.126,0.567 0.033,1.274 -0.036,1.826 -0.074,0.585 -0.173,1.182 -0.297,1.758 -0.102,0.47 -0.303,0.915 -0.477,1.361 -0.282,0.731 -0.544,1.468 -0.789,2.211 -0.476,1.44 -0.904,2.894 -1.368,4.338 -0.561,1.749 -0.621,3.588 -0.449,5.411 0.091,0.95 0.42,1.817 0.77,2.696 0.362,0.908 0.751,1.806 1.149,2.697 0.371,0.826 0.689,1.619 0.849,2.515 0.114,0.642 0.177,1.293 0.198,1.946 0.002,0.088 -0.031,0.258 0.004,0.34 0.068,0.16 0.373,0.353 0.494,0.475 0.561,0.569 1.015,1.19 1.448,1.859 0.367,0.567 0.832,1.156 1.111,1.772 0.294,0.646 0.017,1.477 -0.021,2.151 0.015,-0.285 0.03,-0.563 -0.001,0.008 -0.054,1.046 -0.28,2.096 -0.465,3.126 -0.217,1.199 -0.376,2.444 -0.694,3.622 -0.163,0.606 -0.417,1.208 -0.821,1.696 -0.279,0.336 -0.607,0.517 -0.979,0.729 -0.487,0.28 -0.948,0.605 -1.422,0.908 -0.522,0.334 -1.238,0.647 -1.527,1.233 -0.202,0.409 -0.036,0.972 0.078,1.379 0.066,0.233 0.325,0.149 0.512,0.329 0.273,0.259 0.505,0.694 0.578,1.062 0.034,0.178 0.012,0.373 -0.087,0.528 -0.029,0.048 -0.015,0.058 0.003,0.115 0.09,0.288 0.181,0.578 0.272,0.867 0.124,0.393 0.292,0.773 0.193,1.192 -0.102,0.423 -0.349,0.798 -0.581,1.159 -0.361,0.556 -1.18,0.904 -1.789,1.097 -0.616,0.195 -1.247,0.002 -1.832,-0.224 -0.634,-0.246 -1.147,-0.523 -1.339,-1.211 -0.195,-0.699 -0.054,-1.436 -0.238,-2.125 -0.083,-0.312 -0.233,-0.536 -0.207,-0.869 0.025,-0.308 0.096,-0.616 0.191,-0.91 0.178,-0.553 0.316,-1.034 0.327,-1.631 0.01,-0.622 -0.009,-1.177 -0.621,-1.482 -0.639,-0.319 -1.396,-0.42 -2.078,-0.617 -1.118,-0.321 -2.222,-0.951 -2.417,-2.2 -0.031,-0.201 -0.113,-0.378 -0.185,-0.569 -0.206,-0.538 -0.411,-1.073 -0.623,-1.609 -0.09,-0.231 -0.182,-0.463 -0.279,-0.692 -0.086,-0.201 -0.244,-0.418 -0.257,-0.638 -0.006,-0.096 0.101,-0.101 0.111,-0.19 0.014,-0.15 -0.067,-0.345 -0.116,-0.483 -0.087,-0.248 -0.242,-0.481 -0.373,-0.708 -0.793,-1.379 -1.498,-2.758 -2.088,-4.236 -0.241,-0.605 -0.48,-1.216 -0.66,-1.843 -0.21,-0.723 -0.471,-1.311 -0.979,-1.885 -0.236,-0.266 -0.503,-0.455 -0.503,-0.843 0,-0.203 0.039,-0.404 0.059,-0.606 0.019,-0.21 -0.011,-0.418 0.005,-0.627 0.024,-0.289 0.186,-0.537 0.463,-0.644 0.139,-0.054 0.688,-0.183 0.733,0.041 0.145,-0.032 0.447,-0.134 0.582,-0.051 0.152,0.093 0.021,0.435 -0.079,0.516 -0.189,0.151 -0.386,0.441 -0.495,0.656 -0.07,0.139 0.105,0.209 0.186,0.286 0.12,0.117 0.078,0.037 0.167,-0.047 0.308,-0.286 0.49,0.172 0.566,0.392 0.101,0.294 0.245,0.59 0.308,0.894 0.057,0.274 0.059,0.326 0.295,0.5 0.151,0.112 0.274,0.253 0.405,0.385 1.469,1.489 2.497,3.314 3.468,5.147 0.066,0.124 0.574,1.266 0.737,1.18 0.177,-0.092 0.197,-0.601 0.228,-0.764 0.083,-0.424 0.198,-0.842 0.272,-1.268 0.166,-0.949 0.163,-1.93 0.045,-2.885 -0.11,-0.879 -0.37,-1.72 -0.427,-2.608 -0.117,-1.821 0.098,-3.667 0.342,-5.469 0.207,-1.53 0.59,-3.042 0.996,-4.53 0.175,-0.643 0.36,-1.284 0.568,-1.918 0.169,-0.512 0.404,-1.007 0.472,-1.547 0.097,-0.761 -0.069,-1.539 -0.202,-2.283 -0.124,-0.696 -0.291,-1.38 -0.481,-2.059 -0.397,-1.419 -0.856,-2.818 -1.329,-4.213 -0.228,-0.675 -1.144,-2.555 -1.695,-3.037 -0.389,-0.34 -1.022,-0.481 -1.106,-1.052 -0.043,-0.29 -0.226,-0.749 -0.111,-1.025 0.112,-0.269 0.429,-0.425 0.651,-0.595 -1.081,0 -2.175,-0.003 -3.299,-0.012 0,0 -11.825,-0.911 -14.856,-0.911 -3.032,0 -80.218,-1.375 -92.402,-0.563"
         style="fill:none;stroke:#231f20;stroke-width:0.3;stroke-linecap:butt;stroke-linejoin:miter;stroke-miterlimit:10;stroke-dasharray:none;stroke-opacity:1"
         transform="matrix(0.35277776,0,0,-0.35277776,150.90575,76.018118)"
         clip-path="url(#clipPath71)" />
      <path
         id="path72"
         d="m 172.377,669.618 h 1.364 v -7.943 h -1.364 z"
         style="fill:#5e8089;fill-opacity:1;fill-rule:nonzero;stroke:none"
         transform="matrix(0.35277776,0,0,-0.35277776,0.36541471,293.59999)"
         clip-path="url(#clipPath73)" />
      <path
         id="path74"
         d="M 0,0 C -0.022,0.792 -0.44,1.254 -1.101,1.254 -1.761,1.254 -2.179,0.792 -2.2,0 Z m -2.2,-0.924 c 0.021,-1.188 0.55,-1.65 1.187,-1.65 0.639,0 0.936,0.286 1.277,0.682 l 0.99,-0.616 c -0.528,-0.814 -1.298,-1.166 -2.399,-1.166 -1.485,0 -2.419,1.154 -2.419,2.97 0,1.815 0.934,2.971 2.486,2.971 1.496,0.01 2.332,-1.255 2.332,-2.63 v -0.561 z"
         style="fill:#5e8089;fill-opacity:1;fill-rule:nonzero;stroke:none"
         transform="matrix(0.35277776,0,0,-0.35277776,63.287318,58.918593)"
         clip-path="url(#clipPath75)" />
      <path
         id="path76"
         d="m 0,0 c -0.275,0.297 -0.638,0.605 -1.067,0.605 -0.529,0 -0.77,-0.22 -0.77,-0.561 0,-0.979 2.86,-0.561 2.86,-2.651 0,-1.188 -0.902,-1.716 -2.101,-1.716 -0.913,0 -1.661,0.406 -2.167,1.155 l 0.913,0.682 c 0.318,-0.44 0.748,-0.825 1.331,-0.825 0.483,0 0.814,0.264 0.814,0.649 0,0.979 -2.861,0.627 -2.861,2.618 0,1.067 0.902,1.662 1.893,1.662 0.759,0 1.518,-0.286 2.013,-0.869 z"
         style="fill:#5e8089;fill-opacity:1;fill-rule:nonzero;stroke:none"
         transform="matrix(0.35277776,0,0,-0.35277776,65.010213,58.689641)"
         clip-path="url(#clipPath77)" />
    </g>
  </g>
</svg>
